%TF.GenerationSoftware,KiCad,Pcbnew,7.0.9-7.0.9~ubuntu22.04.1*%
%TF.CreationDate,2024-02-03T20:02:18-05:00*%
%TF.ProjectId,deca-ring-counter,64656361-2d72-4696-9e67-2d636f756e74,rev?*%
%TF.SameCoordinates,Original*%
%TF.FileFunction,Soldermask,Top*%
%TF.FilePolarity,Negative*%
%FSLAX46Y46*%
G04 Gerber Fmt 4.6, Leading zero omitted, Abs format (unit mm)*
G04 Created by KiCad (PCBNEW 7.0.9-7.0.9~ubuntu22.04.1) date 2024-02-03 20:02:18*
%MOMM*%
%LPD*%
G01*
G04 APERTURE LIST*
%ADD10R,1.050000X1.500000*%
%ADD11O,1.050000X1.500000*%
%ADD12C,1.600000*%
%ADD13O,1.600000X1.600000*%
%ADD14R,1.600000X1.600000*%
%ADD15R,1.700000X1.700000*%
%ADD16O,1.700000X1.700000*%
%ADD17R,2.400000X1.600000*%
%ADD18O,2.400000X1.600000*%
%ADD19C,1.651000*%
G04 APERTURE END LIST*
D10*
%TO.C,Q2*%
X170230000Y-142820000D03*
D11*
X171500000Y-142820000D03*
X172770000Y-142820000D03*
%TD*%
D12*
%TO.C,R8*%
X161790000Y-135360000D03*
D13*
X169410000Y-135360000D03*
%TD*%
D12*
%TO.C,R6*%
X187500000Y-55660000D03*
D13*
X179880000Y-55660000D03*
%TD*%
D12*
%TO.C,C8*%
X162293000Y-76376000D03*
X164793000Y-76376000D03*
%TD*%
%TO.C,R7*%
X165849000Y-68248000D03*
D13*
X158229000Y-68248000D03*
%TD*%
%TO.C,D22*%
X179400000Y-67420000D03*
D14*
X179400000Y-59800000D03*
%TD*%
D12*
%TO.C,C12*%
X165850000Y-96060000D03*
X163350000Y-96060000D03*
%TD*%
D14*
%TO.C,D11*%
X151100000Y-128050000D03*
D13*
X151100000Y-135670000D03*
%TD*%
D12*
%TO.C,R2*%
X165810000Y-44460000D03*
D13*
X158190000Y-44460000D03*
%TD*%
D15*
%TO.C,J5*%
X151090000Y-116687531D03*
D16*
X151090000Y-119227531D03*
X151090000Y-121767531D03*
X151090000Y-124307531D03*
%TD*%
D17*
%TO.C,U3*%
X168900000Y-65320000D03*
D18*
X168900000Y-67860000D03*
X168900000Y-70400000D03*
X168900000Y-72940000D03*
X168900000Y-75480000D03*
X168900000Y-78020000D03*
X168900000Y-80560000D03*
X176520000Y-80560000D03*
X176520000Y-78020000D03*
X176520000Y-75480000D03*
X176520000Y-72940000D03*
X176520000Y-70400000D03*
X176520000Y-67860000D03*
X176520000Y-65320000D03*
%TD*%
D15*
%TO.C,J10*%
X186680000Y-115651643D03*
D16*
X186680000Y-113111643D03*
X186680000Y-110571643D03*
X186680000Y-108031643D03*
X186680000Y-105491643D03*
X186680000Y-102951643D03*
X186680000Y-100411643D03*
X186680000Y-97871643D03*
X186680000Y-95331643D03*
X186680000Y-92791643D03*
%TD*%
D12*
%TO.C,C3*%
X181700000Y-122460000D03*
X181700000Y-119960000D03*
%TD*%
%TO.C,C2*%
X165934000Y-48072000D03*
X163434000Y-48072000D03*
%TD*%
D15*
%TO.C,J8*%
X151168140Y-86149174D03*
D16*
X151168140Y-83609174D03*
X151168140Y-81069174D03*
X151168140Y-78529174D03*
X151168140Y-75989174D03*
X151168140Y-73449174D03*
X151168140Y-70909174D03*
X151168140Y-68369174D03*
X151168140Y-65829174D03*
X151168140Y-63289174D03*
%TD*%
D12*
%TO.C,C4*%
X161034000Y-61722000D03*
X158534000Y-61722000D03*
%TD*%
D14*
%TO.C,U4*%
X152920000Y-140007531D03*
D13*
X152920000Y-142547531D03*
X152920000Y-145087531D03*
X152920000Y-147627531D03*
X160540000Y-147627531D03*
X160540000Y-145087531D03*
X160540000Y-142547531D03*
X160540000Y-140007531D03*
%TD*%
D12*
%TO.C,C10*%
X165684000Y-82372000D03*
X163184000Y-82372000D03*
%TD*%
D17*
%TO.C,U2*%
X151300000Y-92200000D03*
D18*
X151300000Y-94740000D03*
X151300000Y-97280000D03*
X151300000Y-99820000D03*
X151300000Y-102360000D03*
X151300000Y-104900000D03*
X151300000Y-107440000D03*
X151300000Y-109980000D03*
X158920000Y-109980000D03*
X158920000Y-107440000D03*
X158920000Y-104900000D03*
X158920000Y-102360000D03*
X158920000Y-99820000D03*
X158920000Y-97280000D03*
X158920000Y-94740000D03*
X158920000Y-92200000D03*
%TD*%
D10*
%TO.C,Q1*%
X163730000Y-142720000D03*
D11*
X165000000Y-142720000D03*
X166270000Y-142720000D03*
%TD*%
D12*
%TO.C,C6*%
X182650000Y-51860000D03*
X180150000Y-51860000D03*
%TD*%
%TO.C,R24*%
X163490000Y-147560000D03*
D13*
X171110000Y-147560000D03*
%TD*%
D12*
%TO.C,R3*%
X181500000Y-116680000D03*
D13*
X181500000Y-109060000D03*
%TD*%
D12*
%TO.C,R1*%
X165000000Y-110050000D03*
D13*
X165000000Y-117670000D03*
%TD*%
D12*
%TO.C,R13*%
X158610000Y-55294000D03*
D13*
X166230000Y-55294000D03*
%TD*%
D12*
%TO.C,R10*%
X160534000Y-87122000D03*
D13*
X160534000Y-79502000D03*
%TD*%
D12*
%TO.C,R5*%
X162010000Y-113960000D03*
D13*
X154390000Y-113960000D03*
%TD*%
D12*
%TO.C,R4*%
X166254000Y-58342000D03*
D13*
X158634000Y-58342000D03*
%TD*%
D12*
%TO.C,C7*%
X165684000Y-64772000D03*
X163184000Y-64772000D03*
%TD*%
%TO.C,C13*%
X186200000Y-146810000D03*
X186200000Y-144310000D03*
%TD*%
%TO.C,R25*%
X187200000Y-80760000D03*
D13*
X179580000Y-80760000D03*
%TD*%
D15*
%TO.C,J9*%
X187210000Y-63299531D03*
D16*
X187210000Y-65839531D03*
X187210000Y-68379531D03*
X187210000Y-70919531D03*
X187210000Y-73459531D03*
%TD*%
D12*
%TO.C,C5*%
X159800000Y-118160000D03*
X162300000Y-118160000D03*
%TD*%
%TO.C,R12*%
X164900000Y-99950000D03*
D13*
X164900000Y-107570000D03*
%TD*%
D12*
%TO.C,C11*%
X180800000Y-93860000D03*
X183300000Y-93860000D03*
%TD*%
%TO.C,R11*%
X186000000Y-132550000D03*
D13*
X186000000Y-140170000D03*
%TD*%
D18*
%TO.C,U1*%
X176220000Y-106360000D03*
X176220000Y-108900000D03*
X176220000Y-111440000D03*
X176220000Y-113980000D03*
X176220000Y-116520000D03*
X176220000Y-119060000D03*
X176220000Y-121600000D03*
X168600000Y-121600000D03*
X168600000Y-119060000D03*
X168600000Y-116520000D03*
X168600000Y-113980000D03*
X168600000Y-111440000D03*
X168600000Y-108900000D03*
D17*
X168600000Y-106360000D03*
%TD*%
%TO.C,U8*%
X168600000Y-85960000D03*
D18*
X168600000Y-88500000D03*
X168600000Y-91040000D03*
X168600000Y-93580000D03*
X168600000Y-96120000D03*
X168600000Y-98660000D03*
X168600000Y-101200000D03*
X176220000Y-101200000D03*
X176220000Y-98660000D03*
X176220000Y-96120000D03*
X176220000Y-93580000D03*
X176220000Y-91040000D03*
X176220000Y-88500000D03*
X176220000Y-85960000D03*
%TD*%
D12*
%TO.C,C1*%
X180200000Y-104660000D03*
X182700000Y-104660000D03*
%TD*%
%TO.C,R9*%
X179900000Y-47060000D03*
D13*
X187520000Y-47060000D03*
%TD*%
D17*
%TO.C,U6*%
X168900000Y-44260000D03*
D18*
X168900000Y-46800000D03*
X168900000Y-49340000D03*
X168900000Y-51880000D03*
X168900000Y-54420000D03*
X168900000Y-56960000D03*
X168900000Y-59500000D03*
X176520000Y-59500000D03*
X176520000Y-56960000D03*
X176520000Y-54420000D03*
X176520000Y-51880000D03*
X176520000Y-49340000D03*
X176520000Y-46800000D03*
X176520000Y-44260000D03*
%TD*%
D14*
%TO.C,C9*%
X178400000Y-145260000D03*
D12*
X180900000Y-145260000D03*
%TD*%
D19*
%TO.C,H2*%
X176160000Y-130100000D03*
X176160000Y-127560000D03*
X173620000Y-130100000D03*
X173620000Y-127560000D03*
X171080000Y-130100000D03*
X171080000Y-127560000D03*
X168540000Y-130100000D03*
X168540000Y-127560000D03*
X166000000Y-130100000D03*
X166000000Y-127560000D03*
X163460000Y-130100000D03*
X163460000Y-127560000D03*
X160920000Y-130100000D03*
X160920000Y-127560000D03*
X158380000Y-130100000D03*
X158380000Y-127560000D03*
%TD*%
M02*
