%TF.GenerationSoftware,KiCad,Pcbnew,7.0.11-7.0.11~ubuntu22.04.1*%
%TF.CreationDate,2024-04-01T17:31:04-04:00*%
%TF.ProjectId,deca-ring-counter,64656361-2d72-4696-9e67-2d636f756e74,rev?*%
%TF.SameCoordinates,Original*%
%TF.FileFunction,Soldermask,Bot*%
%TF.FilePolarity,Negative*%
%FSLAX46Y46*%
G04 Gerber Fmt 4.6, Leading zero omitted, Abs format (unit mm)*
G04 Created by KiCad (PCBNEW 7.0.11-7.0.11~ubuntu22.04.1) date 2024-04-01 17:31:04*
%MOMM*%
%LPD*%
G01*
G04 APERTURE LIST*
%ADD10C,1.600000*%
%ADD11O,1.600000X1.600000*%
%ADD12R,2.000000X2.000000*%
%ADD13C,2.000000*%
%ADD14R,1.500000X1.050000*%
%ADD15O,1.500000X1.050000*%
%ADD16R,1.050000X1.500000*%
%ADD17O,1.050000X1.500000*%
%ADD18R,1.600000X1.600000*%
%ADD19C,1.800000*%
%ADD20C,3.100000*%
%ADD21R,1.700000X1.700000*%
%ADD22O,1.700000X1.700000*%
%ADD23O,2.400000X1.600000*%
%ADD24R,2.400000X1.600000*%
%ADD25C,2.667000*%
%ADD26C,1.803400*%
%ADD27C,1.651000*%
G04 APERTURE END LIST*
D10*
%TO.C,R30*%
X187198000Y-84582000D03*
D11*
X179578000Y-84582000D03*
%TD*%
D10*
%TO.C,R29*%
X120142000Y-61976000D03*
D11*
X127762000Y-61976000D03*
%TD*%
D12*
%TO.C,D1*%
X124206000Y-55372000D03*
D13*
X126746000Y-55372000D03*
%TD*%
D10*
%TO.C,R28*%
X183642000Y-66040000D03*
D11*
X183642000Y-58420000D03*
%TD*%
D14*
%TO.C,Q3*%
X181102000Y-73660000D03*
D15*
X181102000Y-74930000D03*
X181102000Y-76200000D03*
%TD*%
D16*
%TO.C,Q2*%
X170230000Y-142820000D03*
D17*
X171500000Y-142820000D03*
X172770000Y-142820000D03*
%TD*%
D10*
%TO.C,R8*%
X161790000Y-135360000D03*
D11*
X169410000Y-135360000D03*
%TD*%
D10*
%TO.C,R6*%
X187500000Y-55660000D03*
D11*
X179880000Y-55660000D03*
%TD*%
D10*
%TO.C,C8*%
X162293000Y-76376000D03*
X164793000Y-76376000D03*
%TD*%
D12*
%TO.C,D20*%
X112756140Y-108516000D03*
D13*
X115296140Y-108516000D03*
%TD*%
D10*
%TO.C,R7*%
X165849000Y-68248000D03*
D11*
X158229000Y-68248000D03*
%TD*%
D18*
%TO.C,D22*%
X180086000Y-59944000D03*
D11*
X180086000Y-67564000D03*
%TD*%
D10*
%TO.C,C12*%
X165850000Y-96060000D03*
X163350000Y-96060000D03*
%TD*%
%TO.C,R22*%
X119020000Y-113035000D03*
D11*
X111400000Y-113035000D03*
%TD*%
D19*
%TO.C,J1*%
X102051140Y-139578000D03*
X102051140Y-136478000D03*
X102051140Y-128178000D03*
%TD*%
D18*
%TO.C,D11*%
X151100000Y-128050000D03*
D11*
X151100000Y-135670000D03*
%TD*%
D12*
%TO.C,D15*%
X112756140Y-63332252D03*
D13*
X115296140Y-63332252D03*
%TD*%
D10*
%TO.C,R19*%
X119430140Y-85730000D03*
D11*
X111810140Y-85730000D03*
%TD*%
D10*
%TO.C,R20*%
X119020000Y-94620000D03*
D11*
X111400000Y-94620000D03*
%TD*%
D20*
%TO.C,SW4*%
X98900000Y-63578000D03*
X103600000Y-63578000D03*
X108300000Y-63578000D03*
%TD*%
%TO.C,SW1*%
X98900000Y-36200000D03*
X103600000Y-36200000D03*
X108300000Y-36200000D03*
%TD*%
D12*
%TO.C,D12*%
X112756140Y-36048000D03*
D13*
X115296140Y-36048000D03*
%TD*%
D12*
%TO.C,D19*%
X112756140Y-99548000D03*
D13*
X115296140Y-99548000D03*
%TD*%
D19*
%TO.C,J2*%
X112201140Y-139578000D03*
X112201140Y-136478000D03*
X112201140Y-128178000D03*
%TD*%
D10*
%TO.C,R2*%
X165810000Y-44460000D03*
D11*
X158190000Y-44460000D03*
%TD*%
D21*
%TO.C,J5*%
X151090000Y-116687531D03*
D22*
X151090000Y-119227531D03*
X151090000Y-121767531D03*
X151090000Y-124307531D03*
%TD*%
D20*
%TO.C,SW8*%
X98900000Y-99840500D03*
X103600000Y-99840500D03*
X108300000Y-99840500D03*
%TD*%
D23*
%TO.C,U3*%
X176520000Y-65320000D03*
X176520000Y-67860000D03*
X176520000Y-70400000D03*
X176520000Y-72940000D03*
X176520000Y-75480000D03*
X176520000Y-78020000D03*
X176520000Y-80560000D03*
X168900000Y-80560000D03*
X168900000Y-78020000D03*
X168900000Y-75480000D03*
X168900000Y-72940000D03*
X168900000Y-70400000D03*
X168900000Y-67860000D03*
D24*
X168900000Y-65320000D03*
%TD*%
D21*
%TO.C,J10*%
X186680000Y-115651643D03*
D22*
X186680000Y-113111643D03*
X186680000Y-110571643D03*
X186680000Y-108031643D03*
X186680000Y-105491643D03*
X186680000Y-102951643D03*
X186680000Y-100411643D03*
X186680000Y-97871643D03*
X186680000Y-95331643D03*
X186680000Y-92791643D03*
%TD*%
D10*
%TO.C,C3*%
X181700000Y-122460000D03*
X181700000Y-119960000D03*
%TD*%
D12*
%TO.C,D18*%
X112756140Y-90658000D03*
D13*
X115296140Y-90658000D03*
%TD*%
D10*
%TO.C,C2*%
X165934000Y-48072000D03*
X163434000Y-48072000D03*
%TD*%
%TO.C,R23*%
X120000000Y-123910000D03*
D11*
X120000000Y-116290000D03*
%TD*%
D21*
%TO.C,J8*%
X151168140Y-86149174D03*
D22*
X151168140Y-83609174D03*
X151168140Y-81069174D03*
X151168140Y-78529174D03*
X151168140Y-75989174D03*
X151168140Y-73449174D03*
X151168140Y-70909174D03*
X151168140Y-68369174D03*
X151168140Y-65829174D03*
X151168140Y-63289174D03*
%TD*%
D20*
%TO.C,SW6*%
X98900000Y-81588500D03*
X103600000Y-81588500D03*
X108300000Y-81588500D03*
%TD*%
D10*
%TO.C,C4*%
X161034000Y-61722000D03*
X158534000Y-61722000D03*
%TD*%
D20*
%TO.C,SW3*%
X98900000Y-54452000D03*
X103600000Y-54452000D03*
X108300000Y-54452000D03*
%TD*%
D10*
%TO.C,R15*%
X119020000Y-49535000D03*
D11*
X111400000Y-49535000D03*
%TD*%
D10*
%TO.C,R27*%
X156464000Y-122174000D03*
D11*
X164084000Y-122174000D03*
%TD*%
D10*
%TO.C,R16*%
X119020000Y-58928000D03*
D11*
X111400000Y-58928000D03*
%TD*%
D12*
%TO.C,D17*%
X112756140Y-81768000D03*
D13*
X115296140Y-81768000D03*
%TD*%
D20*
%TO.C,SW7*%
X98900000Y-90714500D03*
X103600000Y-90714500D03*
X108300000Y-90714500D03*
%TD*%
D18*
%TO.C,U4*%
X152920000Y-140007531D03*
D11*
X152920000Y-142547531D03*
X152920000Y-145087531D03*
X152920000Y-147627531D03*
X160540000Y-147627531D03*
X160540000Y-145087531D03*
X160540000Y-142547531D03*
X160540000Y-140007531D03*
%TD*%
D19*
%TO.C,J3*%
X122351140Y-139578000D03*
X122351140Y-136478000D03*
X122351140Y-128178000D03*
%TD*%
D20*
%TO.C,SW9*%
X98900000Y-108966500D03*
X103600000Y-108966500D03*
X108300000Y-108966500D03*
%TD*%
D25*
%TO.C,RV2*%
X121496140Y-44250000D03*
X130284540Y-44250000D03*
D26*
X123350340Y-37239600D03*
X125890340Y-37239600D03*
X128430340Y-37239600D03*
%TD*%
D10*
%TO.C,C10*%
X165684000Y-82372000D03*
X163184000Y-82372000D03*
%TD*%
D24*
%TO.C,U2*%
X151300000Y-92200000D03*
D23*
X151300000Y-94740000D03*
X151300000Y-97280000D03*
X151300000Y-99820000D03*
X151300000Y-102360000D03*
X151300000Y-104900000D03*
X151300000Y-107440000D03*
X151300000Y-109980000D03*
X158920000Y-109980000D03*
X158920000Y-107440000D03*
X158920000Y-104900000D03*
X158920000Y-102360000D03*
X158920000Y-99820000D03*
X158920000Y-97280000D03*
X158920000Y-94740000D03*
X158920000Y-92200000D03*
%TD*%
D16*
%TO.C,Q1*%
X163730000Y-142720000D03*
D17*
X165000000Y-142720000D03*
X166270000Y-142720000D03*
%TD*%
D10*
%TO.C,C6*%
X182650000Y-51860000D03*
X180150000Y-51860000D03*
%TD*%
%TO.C,R24*%
X163490000Y-147560000D03*
D11*
X171110000Y-147560000D03*
%TD*%
D10*
%TO.C,R3*%
X181500000Y-116680000D03*
D11*
X181500000Y-109060000D03*
%TD*%
D20*
%TO.C,SW2*%
X98900000Y-45326000D03*
X103600000Y-45326000D03*
X108300000Y-45326000D03*
%TD*%
D10*
%TO.C,R1*%
X165000000Y-110050000D03*
D11*
X165000000Y-117670000D03*
%TD*%
D10*
%TO.C,R14*%
X119020000Y-40645000D03*
D11*
X111400000Y-40645000D03*
%TD*%
D10*
%TO.C,R13*%
X158610000Y-55294000D03*
D11*
X166230000Y-55294000D03*
%TD*%
D10*
%TO.C,R18*%
X119020000Y-76840000D03*
D11*
X111400000Y-76840000D03*
%TD*%
D10*
%TO.C,R10*%
X160534000Y-87122000D03*
D11*
X160534000Y-79502000D03*
%TD*%
D10*
%TO.C,R5*%
X162010000Y-113960000D03*
D11*
X154390000Y-113960000D03*
%TD*%
D10*
%TO.C,R4*%
X166254000Y-58342000D03*
D11*
X158634000Y-58342000D03*
%TD*%
D12*
%TO.C,D13*%
X112756140Y-44938000D03*
D13*
X115296140Y-44938000D03*
%TD*%
D10*
%TO.C,C7*%
X165684000Y-64772000D03*
X163184000Y-64772000D03*
%TD*%
%TO.C,C13*%
X186200000Y-146810000D03*
X186200000Y-144310000D03*
%TD*%
%TO.C,R25*%
X179324000Y-80518000D03*
D11*
X186944000Y-80518000D03*
%TD*%
D12*
%TO.C,D14*%
X112756140Y-54463000D03*
D13*
X115296140Y-54463000D03*
%TD*%
D25*
%TO.C,RV1*%
X121496140Y-73206000D03*
X130284540Y-73206000D03*
D26*
X123350340Y-66195600D03*
X125890340Y-66195600D03*
X128430340Y-66195600D03*
%TD*%
D10*
%TO.C,R26*%
X123430000Y-123826112D03*
D11*
X123430000Y-116206112D03*
%TD*%
D10*
%TO.C,R17*%
X119655000Y-67950000D03*
D11*
X112035000Y-67950000D03*
%TD*%
D20*
%TO.C,SW5*%
X98900000Y-72704000D03*
X103600000Y-72704000D03*
X108300000Y-72704000D03*
%TD*%
%TO.C,SW10*%
X98900000Y-118092500D03*
X103600000Y-118092500D03*
X108300000Y-118092500D03*
%TD*%
D12*
%TO.C,D16*%
X112756140Y-72243000D03*
D13*
X115296140Y-72243000D03*
%TD*%
D21*
%TO.C,J9*%
X187210000Y-63299531D03*
D22*
X187210000Y-65839531D03*
X187210000Y-68379531D03*
X187210000Y-70919531D03*
X187210000Y-73459531D03*
%TD*%
D10*
%TO.C,C5*%
X159800000Y-118160000D03*
X162300000Y-118160000D03*
%TD*%
%TO.C,R12*%
X164900000Y-99950000D03*
D11*
X164900000Y-107570000D03*
%TD*%
D10*
%TO.C,C11*%
X180800000Y-93860000D03*
X183300000Y-93860000D03*
%TD*%
%TO.C,R11*%
X186000000Y-132550000D03*
D11*
X186000000Y-140170000D03*
%TD*%
D10*
%TO.C,R21*%
X119020000Y-104145000D03*
D11*
X111400000Y-104145000D03*
%TD*%
D24*
%TO.C,U1*%
X168600000Y-106360000D03*
D23*
X168600000Y-108900000D03*
X168600000Y-111440000D03*
X168600000Y-113980000D03*
X168600000Y-116520000D03*
X168600000Y-119060000D03*
X168600000Y-121600000D03*
X176220000Y-121600000D03*
X176220000Y-119060000D03*
X176220000Y-116520000D03*
X176220000Y-113980000D03*
X176220000Y-111440000D03*
X176220000Y-108900000D03*
X176220000Y-106360000D03*
%TD*%
D24*
%TO.C,U8*%
X168600000Y-85960000D03*
D23*
X168600000Y-88500000D03*
X168600000Y-91040000D03*
X168600000Y-93580000D03*
X168600000Y-96120000D03*
X168600000Y-98660000D03*
X168600000Y-101200000D03*
X176220000Y-101200000D03*
X176220000Y-98660000D03*
X176220000Y-96120000D03*
X176220000Y-93580000D03*
X176220000Y-91040000D03*
X176220000Y-88500000D03*
X176220000Y-85960000D03*
%TD*%
D10*
%TO.C,C1*%
X180200000Y-104660000D03*
X182700000Y-104660000D03*
%TD*%
%TO.C,R9*%
X180086000Y-44704000D03*
D11*
X187706000Y-44704000D03*
%TD*%
D12*
%TO.C,D21*%
X112756140Y-117836000D03*
D13*
X115296140Y-117836000D03*
%TD*%
D24*
%TO.C,U6*%
X168900000Y-44260000D03*
D23*
X168900000Y-46800000D03*
X168900000Y-49340000D03*
X168900000Y-51880000D03*
X168900000Y-54420000D03*
X168900000Y-56960000D03*
X168900000Y-59500000D03*
X176520000Y-59500000D03*
X176520000Y-56960000D03*
X176520000Y-54420000D03*
X176520000Y-51880000D03*
X176520000Y-49340000D03*
X176520000Y-46800000D03*
X176520000Y-44260000D03*
%TD*%
D18*
%TO.C,C9*%
X178400000Y-145260000D03*
D10*
X180900000Y-145260000D03*
%TD*%
D21*
%TO.C,J7*%
X94460000Y-106842000D03*
D22*
X94460000Y-109382000D03*
X94460000Y-111922000D03*
X94460000Y-114462000D03*
%TD*%
D21*
%TO.C,J4*%
X94538140Y-76332000D03*
D22*
X94538140Y-73792000D03*
X94538140Y-71252000D03*
X94538140Y-68712000D03*
X94538140Y-66172000D03*
X94538140Y-63632000D03*
X94538140Y-61092000D03*
X94538140Y-58552000D03*
X94538140Y-56012000D03*
X94538140Y-53472000D03*
%TD*%
D21*
%TO.C,J11*%
X130050000Y-105852000D03*
D22*
X130050000Y-103312000D03*
X130050000Y-100772000D03*
X130050000Y-98232000D03*
X130050000Y-95692000D03*
X130050000Y-93152000D03*
X130050000Y-90612000D03*
X130050000Y-88072000D03*
X130050000Y-85532000D03*
X130050000Y-82992000D03*
%TD*%
D21*
%TO.C,J6*%
X130580000Y-53454000D03*
D22*
X130580000Y-55994000D03*
X130580000Y-58534000D03*
X130580000Y-61074000D03*
X130580000Y-63614000D03*
%TD*%
D27*
%TO.C,H2*%
X176160000Y-130100000D03*
X176160000Y-127560000D03*
X173620000Y-130100000D03*
X173620000Y-127560000D03*
X171080000Y-130100000D03*
X171080000Y-127560000D03*
X168540000Y-130100000D03*
X168540000Y-127560000D03*
X166000000Y-130100000D03*
X166000000Y-127560000D03*
X163460000Y-130100000D03*
X163460000Y-127560000D03*
X160920000Y-130100000D03*
X160920000Y-127560000D03*
X158380000Y-130100000D03*
X158380000Y-127560000D03*
%TD*%
M02*
