%TF.GenerationSoftware,KiCad,Pcbnew,7.0.9-7.0.9~ubuntu22.04.1*%
%TF.CreationDate,2024-01-18T19:04:47-05:00*%
%TF.ProjectId,deca-ring-counter,64656361-2d72-4696-9e67-2d636f756e74,rev?*%
%TF.SameCoordinates,Original*%
%TF.FileFunction,Profile,NP*%
%FSLAX46Y46*%
G04 Gerber Fmt 4.6, Leading zero omitted, Abs format (unit mm)*
G04 Created by KiCad (PCBNEW 7.0.9-7.0.9~ubuntu22.04.1) date 2024-01-18 19:04:47*
%MOMM*%
%LPD*%
G01*
G04 APERTURE LIST*
%TA.AperFunction,Profile*%
%ADD10C,1.578330*%
%TD*%
%TA.AperFunction,Profile*%
%ADD11C,3.232531*%
%TD*%
%TA.AperFunction,Profile*%
%ADD12C,1.675000*%
%TD*%
%TA.AperFunction,Profile*%
%ADD13C,3.275000*%
%TD*%
%TA.AperFunction,Profile*%
%ADD14C,0.200000*%
%TD*%
%TA.AperFunction,Profile*%
%ADD15C,3.828665*%
%TD*%
%TA.AperFunction,Profile*%
%ADD16C,3.764173*%
%TD*%
G04 APERTURE END LIST*
D10*
X126419165Y-48478031D02*
G75*
G03*
X126419165Y-48478031I-789165J0D01*
G01*
D11*
X40776265Y-54797531D02*
G75*
G03*
X40776265Y-54797531I-1616265J0D01*
G01*
D12*
X50417500Y-54400000D02*
G75*
G03*
X50417500Y-54400000I-837500J0D01*
G01*
X50417500Y-81710000D02*
G75*
G03*
X50417500Y-81710000I-837500J0D01*
G01*
D11*
X40766265Y-127557531D02*
G75*
G03*
X40766265Y-127557531I-1616265J0D01*
G01*
D13*
X59537500Y-142580000D02*
G75*
G03*
X59537500Y-142580000I-1637500J0D01*
G01*
D12*
X50417500Y-72800000D02*
G75*
G03*
X50417500Y-72800000I-837500J0D01*
G01*
X50417500Y-117980000D02*
G75*
G03*
X50417500Y-117980000I-837500J0D01*
G01*
D14*
X32010000Y-30870000D02*
X32010000Y-30870000D01*
G75*
G02*
X33510000Y-32370000I0J-1500000D01*
G01*
X33510000Y-32570000D01*
G75*
G02*
X32010000Y-34070000I-1500000J0D01*
G01*
X28610000Y-34070000D01*
G75*
G02*
X27110000Y-32570000I0J1500000D01*
G01*
X27110000Y-32370000D01*
G75*
G02*
X28610000Y-30870000I1500000J0D01*
G01*
X32010000Y-30870000D01*
%TA.AperFunction,Profile*%
G36*
X32010000Y-30870000D02*
G01*
X32010000Y-30870000D01*
G75*
G02*
X33510000Y-32370000I0J-1500000D01*
G01*
X33510000Y-32570000D01*
G75*
G02*
X32010000Y-34070000I-1500000J0D01*
G01*
X28610000Y-34070000D01*
G75*
G02*
X27110000Y-32570000I0J1500000D01*
G01*
X27110000Y-32370000D01*
G75*
G02*
X28610000Y-30870000I1500000J0D01*
G01*
X32010000Y-30870000D01*
G37*
%TD.AperFunction*%
D12*
X50417500Y-45510000D02*
G75*
G03*
X50417500Y-45510000I-837500J0D01*
G01*
D11*
X40766265Y-82167531D02*
G75*
G03*
X40766265Y-82167531I-1616265J0D01*
G01*
X40776265Y-73037531D02*
G75*
G03*
X40776265Y-73037531I-1616265J0D01*
G01*
X40768734Y-91057531D02*
G75*
G03*
X40768734Y-91057531I-1616265J0D01*
G01*
D15*
X63354332Y-53720000D02*
G75*
G03*
X63354332Y-53720000I-1914332J0D01*
G01*
D14*
X78238860Y-39581000D02*
X118538860Y-39581000D01*
X118538860Y-149581000D01*
X78238860Y-149581000D01*
X78238860Y-39581000D01*
D13*
X39247500Y-142570000D02*
G75*
G03*
X39247500Y-142570000I-1637500J0D01*
G01*
D12*
X50417500Y-63930000D02*
G75*
G03*
X50417500Y-63930000I-837500J0D01*
G01*
D11*
X40766265Y-45667531D02*
G75*
G03*
X40766265Y-45667531I-1616265J0D01*
G01*
D12*
X50497500Y-91324360D02*
G75*
G03*
X50497500Y-91324360I-837500J0D01*
G01*
X50497500Y-100224360D02*
G75*
G03*
X50497500Y-100224360I-837500J0D01*
G01*
D16*
X63322086Y-82670000D02*
G75*
G03*
X63322086Y-82670000I-1882086J0D01*
G01*
D14*
X65670000Y-153393452D02*
X65670000Y-153393452D01*
G75*
G02*
X67170000Y-154893452I0J-1500048D01*
G01*
X67170000Y-155093452D01*
G75*
G02*
X65670000Y-156593452I-1500000J-48D01*
G01*
X62270000Y-156593452D01*
G75*
G02*
X60770000Y-155093452I0J1499952D01*
G01*
X60770000Y-154893452D01*
G75*
G02*
X62270000Y-153393452I1500000J-48D01*
G01*
X65670000Y-153393452D01*
%TA.AperFunction,Profile*%
G36*
X65670000Y-153393452D02*
G01*
X65670000Y-153393452D01*
G75*
G02*
X67170000Y-154893452I0J-1500048D01*
G01*
X67170000Y-155093452D01*
G75*
G02*
X65670000Y-156593452I-1500000J-48D01*
G01*
X62270000Y-156593452D01*
G75*
G02*
X60770000Y-155093452I0J1499952D01*
G01*
X60770000Y-154893452D01*
G75*
G02*
X62270000Y-153393452I1500000J-48D01*
G01*
X65670000Y-153393452D01*
G37*
%TD.AperFunction*%
D12*
X50417500Y-109010000D02*
G75*
G03*
X50417500Y-109010000I-837500J0D01*
G01*
D14*
X24100000Y-29487531D02*
X69400000Y-29487531D01*
X69400000Y-157987531D01*
X24100000Y-157987531D01*
X24100000Y-29487531D01*
D10*
X81048025Y-48871500D02*
G75*
G03*
X81048025Y-48871500I-789165J0D01*
G01*
D13*
X49377500Y-142580000D02*
G75*
G03*
X49377500Y-142580000I-1637500J0D01*
G01*
D11*
X40766265Y-118427531D02*
G75*
G03*
X40766265Y-118427531I-1616265J0D01*
G01*
D12*
X50417500Y-127300000D02*
G75*
G03*
X50417500Y-127300000I-837500J0D01*
G01*
D11*
X40776265Y-100177531D02*
G75*
G03*
X40776265Y-100177531I-1616265J0D01*
G01*
X40776265Y-109297531D02*
G75*
G03*
X40776265Y-109297531I-1616265J0D01*
G01*
D14*
X123610000Y-39187531D02*
X163910000Y-39187531D01*
X163910000Y-149187531D01*
X123610000Y-149187531D01*
X123610000Y-39187531D01*
D11*
X40766265Y-63907531D02*
G75*
G03*
X40766265Y-63907531I-1616265J0D01*
G01*
M02*
