%TF.GenerationSoftware,KiCad,Pcbnew,7.0.9-7.0.9~ubuntu22.04.1*%
%TF.CreationDate,2024-02-03T20:02:18-05:00*%
%TF.ProjectId,deca-ring-counter,64656361-2d72-4696-9e67-2d636f756e74,rev?*%
%TF.SameCoordinates,Original*%
%TF.FileFunction,Legend,Bot*%
%TF.FilePolarity,Positive*%
%FSLAX46Y46*%
G04 Gerber Fmt 4.6, Leading zero omitted, Abs format (unit mm)*
G04 Created by KiCad (PCBNEW 7.0.9-7.0.9~ubuntu22.04.1) date 2024-02-03 20:02:18*
%MOMM*%
%LPD*%
G01*
G04 APERTURE LIST*
%ADD10C,0.300000*%
%ADD11C,0.150000*%
%ADD12C,0.200000*%
%ADD13C,1.000000*%
%ADD14C,0.127000*%
G04 APERTURE END LIST*
D10*
X181545489Y-136860828D02*
X181545489Y-135360828D01*
X181545489Y-135360828D02*
X181188346Y-135360828D01*
X181188346Y-135360828D02*
X180974060Y-135432257D01*
X180974060Y-135432257D02*
X180831203Y-135575114D01*
X180831203Y-135575114D02*
X180759774Y-135717971D01*
X180759774Y-135717971D02*
X180688346Y-136003685D01*
X180688346Y-136003685D02*
X180688346Y-136217971D01*
X180688346Y-136217971D02*
X180759774Y-136503685D01*
X180759774Y-136503685D02*
X180831203Y-136646542D01*
X180831203Y-136646542D02*
X180974060Y-136789400D01*
X180974060Y-136789400D02*
X181188346Y-136860828D01*
X181188346Y-136860828D02*
X181545489Y-136860828D01*
X179188346Y-136860828D02*
X179688346Y-136146542D01*
X180045489Y-136860828D02*
X180045489Y-135360828D01*
X180045489Y-135360828D02*
X179474060Y-135360828D01*
X179474060Y-135360828D02*
X179331203Y-135432257D01*
X179331203Y-135432257D02*
X179259774Y-135503685D01*
X179259774Y-135503685D02*
X179188346Y-135646542D01*
X179188346Y-135646542D02*
X179188346Y-135860828D01*
X179188346Y-135860828D02*
X179259774Y-136003685D01*
X179259774Y-136003685D02*
X179331203Y-136075114D01*
X179331203Y-136075114D02*
X179474060Y-136146542D01*
X179474060Y-136146542D02*
X180045489Y-136146542D01*
X177688346Y-136717971D02*
X177759774Y-136789400D01*
X177759774Y-136789400D02*
X177974060Y-136860828D01*
X177974060Y-136860828D02*
X178116917Y-136860828D01*
X178116917Y-136860828D02*
X178331203Y-136789400D01*
X178331203Y-136789400D02*
X178474060Y-136646542D01*
X178474060Y-136646542D02*
X178545489Y-136503685D01*
X178545489Y-136503685D02*
X178616917Y-136217971D01*
X178616917Y-136217971D02*
X178616917Y-136003685D01*
X178616917Y-136003685D02*
X178545489Y-135717971D01*
X178545489Y-135717971D02*
X178474060Y-135575114D01*
X178474060Y-135575114D02*
X178331203Y-135432257D01*
X178331203Y-135432257D02*
X178116917Y-135360828D01*
X178116917Y-135360828D02*
X177974060Y-135360828D01*
X177974060Y-135360828D02*
X177759774Y-135432257D01*
X177759774Y-135432257D02*
X177688346Y-135503685D01*
X176045489Y-135860828D02*
X175688346Y-136860828D01*
X175688346Y-136860828D02*
X175331203Y-135860828D01*
X173974060Y-136860828D02*
X174831203Y-136860828D01*
X174402632Y-136860828D02*
X174402632Y-135360828D01*
X174402632Y-135360828D02*
X174545489Y-135575114D01*
X174545489Y-135575114D02*
X174688346Y-135717971D01*
X174688346Y-135717971D02*
X174831203Y-135789400D01*
X173331204Y-136717971D02*
X173259775Y-136789400D01*
X173259775Y-136789400D02*
X173331204Y-136860828D01*
X173331204Y-136860828D02*
X173402632Y-136789400D01*
X173402632Y-136789400D02*
X173331204Y-136717971D01*
X173331204Y-136717971D02*
X173331204Y-136860828D01*
X171831203Y-136860828D02*
X172688346Y-136860828D01*
X172259775Y-136860828D02*
X172259775Y-135360828D01*
X172259775Y-135360828D02*
X172402632Y-135575114D01*
X172402632Y-135575114D02*
X172545489Y-135717971D01*
X172545489Y-135717971D02*
X172688346Y-135789400D01*
D11*
X169690667Y-124887485D02*
X170071619Y-124887485D01*
X168595428Y-125220819D02*
X168595428Y-124220819D01*
X168024000Y-125220819D02*
X168452571Y-124649390D01*
X168024000Y-124220819D02*
X168595428Y-124792247D01*
X167214476Y-125173200D02*
X167309714Y-125220819D01*
X167309714Y-125220819D02*
X167500190Y-125220819D01*
X167500190Y-125220819D02*
X167595428Y-125173200D01*
X167595428Y-125173200D02*
X167643047Y-125077961D01*
X167643047Y-125077961D02*
X167643047Y-124697009D01*
X167643047Y-124697009D02*
X167595428Y-124601771D01*
X167595428Y-124601771D02*
X167500190Y-124554152D01*
X167500190Y-124554152D02*
X167309714Y-124554152D01*
X167309714Y-124554152D02*
X167214476Y-124601771D01*
X167214476Y-124601771D02*
X167166857Y-124697009D01*
X167166857Y-124697009D02*
X167166857Y-124792247D01*
X167166857Y-124792247D02*
X167643047Y-124887485D01*
X166833523Y-124554152D02*
X166595428Y-125220819D01*
X166357333Y-124554152D02*
X166595428Y-125220819D01*
X166595428Y-125220819D02*
X166690666Y-125458914D01*
X166690666Y-125458914D02*
X166738285Y-125506533D01*
X166738285Y-125506533D02*
X166833523Y-125554152D01*
X164976380Y-124887485D02*
X165357332Y-124887485D01*
D12*
X157841266Y-134318095D02*
X157841266Y-135080000D01*
X158222219Y-136079999D02*
X158222219Y-135508571D01*
X158222219Y-135794285D02*
X157222219Y-135794285D01*
X157222219Y-135794285D02*
X157365076Y-135699047D01*
X157365076Y-135699047D02*
X157460314Y-135603809D01*
X157460314Y-135603809D02*
X157507933Y-135508571D01*
X157317457Y-136460952D02*
X157269838Y-136508571D01*
X157269838Y-136508571D02*
X157222219Y-136603809D01*
X157222219Y-136603809D02*
X157222219Y-136841904D01*
X157222219Y-136841904D02*
X157269838Y-136937142D01*
X157269838Y-136937142D02*
X157317457Y-136984761D01*
X157317457Y-136984761D02*
X157412695Y-137032380D01*
X157412695Y-137032380D02*
X157507933Y-137032380D01*
X157507933Y-137032380D02*
X157650790Y-136984761D01*
X157650790Y-136984761D02*
X158222219Y-136413333D01*
X158222219Y-136413333D02*
X158222219Y-137032380D01*
X157222219Y-137318095D02*
X158222219Y-137651428D01*
X158222219Y-137651428D02*
X157222219Y-137984761D01*
D13*
%TO.C,H2*%
X152919000Y-136450000D02*
X152919000Y-121210000D01*
D12*
X153270000Y-133330000D02*
X153270000Y-124330000D01*
X181270000Y-133330000D02*
X153270000Y-133330000D01*
X181270000Y-133330000D02*
X181270000Y-124330000D01*
D13*
X155870000Y-132230000D02*
X155870000Y-125430000D01*
D14*
X159650000Y-131370000D02*
X157110000Y-131370000D01*
X162190000Y-131370000D02*
X159650000Y-131370000D01*
X164730000Y-131370000D02*
X162190000Y-131370000D01*
X167270000Y-131370000D02*
X164730000Y-131370000D01*
X169810000Y-131370000D02*
X167270000Y-131370000D01*
X172350000Y-131370000D02*
X169810000Y-131370000D01*
X174890000Y-131370000D02*
X172350000Y-131370000D01*
X177430000Y-131370000D02*
X174890000Y-131370000D01*
X157110000Y-128830000D02*
X157110000Y-131370000D01*
X177430000Y-128830000D02*
X177430000Y-131370000D01*
X157110000Y-126290000D02*
X157110000Y-128830000D01*
X157110000Y-126290000D02*
X159650000Y-126290000D01*
X159650000Y-126290000D02*
X162190000Y-126290000D01*
X162190000Y-126290000D02*
X164730000Y-126290000D01*
X164730000Y-126290000D02*
X167270000Y-126290000D01*
X167270000Y-126290000D02*
X169810000Y-126290000D01*
X169810000Y-126290000D02*
X172350000Y-126290000D01*
X172350000Y-126290000D02*
X174890000Y-126290000D01*
X174890000Y-126290000D02*
X177430000Y-126290000D01*
X177430000Y-126290000D02*
X177430000Y-128830000D01*
D12*
X163270000Y-124330000D02*
X153270000Y-124330000D01*
X181270000Y-124330000D02*
X171270000Y-124330000D01*
%TD*%
M02*
