M48
; DRILL file {KiCad 7.0.9-7.0.9~ubuntu22.04.1} date Thu 18 Jan 2024 07:04:43 PM
; FORMAT={-:-/ absolute / inch / decimal}
; #@! TF.CreationDate,2024-01-18T19:04:43-05:00
; #@! TF.GenerationSoftware,Kicad,Pcbnew,7.0.9-7.0.9~ubuntu22.04.1
; #@! TF.FileFunction,Plated,1,2,PTH
FMAT,2
INCH
; #@! TA.AperFunction,Plated,PTH,ViaDrill
T1C0.0157
; #@! TA.AperFunction,Plated,PTH,ComponentDrill
T2C0.0295
; #@! TA.AperFunction,Plated,PTH,ComponentDrill
T3C0.0315
; #@! TA.AperFunction,Plated,PTH,ComponentDrill
T4C0.0350
; #@! TA.AperFunction,Plated,PTH,ComponentDrill
T5C0.0354
; #@! TA.AperFunction,Plated,PTH,ComponentDrill
T6C0.0394
; #@! TA.AperFunction,Plated,PTH,ComponentDrill
T7C0.0394
; #@! TA.AperFunction,Plated,PTH,ComponentDrill
T8C0.0472
; #@! TA.AperFunction,Plated,PTH,ComponentDrill
T9C0.0630
; #@! TA.AperFunction,Plated,PTH,ComponentDrill
T10C0.0810
%
G90
G05
T1
X3.4019Y-3.1384
X4.8898Y-4.5787
X5.0276Y-2.2559
X5.0827Y-3.0354
X5.0866Y-2.7323
X5.1004Y-2.8307
X5.1063Y-3.126
X5.1302Y-4.4286
X5.1476Y-3.2362
X5.1685Y-4.406
X5.1685Y-4.5123
X5.1969Y-3.3307
X5.2165Y-4.4055
X5.2441Y-4.3307
X5.2992Y-4.4016
X5.3937Y-4.3339
X5.7827Y-4.028
X5.7953Y-3.0039
X5.7953Y-2.7205
X5.7953Y-2.8031
X5.8543Y-2.3661
X5.8543Y-2.437
X5.937Y-3.248
X5.9598Y-4.0477
X6.0039Y-3.9724
X6.0118Y-3.8976
X6.0236Y-2.6535
X6.1142Y-2.6535
X6.1614Y-3.9528
X6.1654Y-3.8346
X6.185Y-5.4094
X6.2559Y-4.315
X6.2598Y-3.0945
X6.2835Y-3.5551
T2
X5.4421Y-5.5496
X5.4921Y-5.5496
X5.5421Y-5.5496
X5.698Y-5.5535
X5.748Y-5.5535
X5.798Y-5.5535
T3
X3.8252Y-1.934
X3.8252Y-2.284
X3.8252Y-2.659
X3.8252Y-3.359
X3.8252Y-4.059
X3.8252Y-4.434
X3.8252Y-4.784
X3.8413Y-3.709
X3.8502Y-3.009
X4.1252Y-1.934
X4.1252Y-2.284
X4.1252Y-2.659
X4.1252Y-3.359
X4.1252Y-4.059
X4.1252Y-4.434
X4.1252Y-4.784
X4.1413Y-3.709
X4.1502Y-3.009
X4.1637Y-4.9122
X4.1637Y-5.2122
X4.2988Y-4.9089
X4.2988Y-5.2089
X4.9449Y-4.972
X4.9449Y-5.272
X4.9528Y-3.5606
X4.9528Y-3.6606
X4.9528Y-3.7606
X4.9528Y-3.8606
X4.9528Y-3.9606
X4.9528Y-4.0606
X4.9528Y-4.1606
X4.9528Y-4.2606
X5.0165Y-5.4428
X5.0165Y-5.5428
X5.0165Y-5.6428
X5.0165Y-5.7428
X5.0744Y-4.4173
X5.1217Y-4.752
X5.224Y-1.6811
X5.2256Y-2.6176
X5.2376Y-2.3607
X5.2406Y-1.9976
X5.2406Y-2.1076
X5.2406Y-2.7376
X5.2415Y-2.2276
X5.2528Y-3.5606
X5.2528Y-3.6606
X5.2528Y-3.7606
X5.2528Y-3.8606
X5.2528Y-3.9606
X5.2528Y-4.0606
X5.2528Y-4.1606
X5.2528Y-4.2606
X5.2874Y-4.5827
X5.3163Y-3.0607
X5.3163Y-3.3607
X5.3165Y-5.4428
X5.3165Y-5.5428
X5.3165Y-5.6428
X5.3165Y-5.7428
X5.336Y-2.3607
X5.3657Y-5.2598
X5.3744Y-4.4173
X5.3856Y-2.9376
X5.3858Y-4.5827
X5.4206Y-2.4808
X5.4206Y-3.1737
X5.4217Y-4.752
X5.4272Y-3.7126
X5.4305Y-1.8233
X5.4327Y-5.7402
X5.484Y-2.9376
X5.4882Y-3.8657
X5.4882Y-4.1657
X5.4921Y-4.2634
X5.4921Y-4.5634
X5.5047Y-3.3043
X5.5047Y-3.6043
X5.5191Y-2.4808
X5.5191Y-3.1737
X5.524Y-1.6811
X5.5256Y-2.6176
X5.5256Y-3.7126
X5.5289Y-1.8233
X5.5406Y-1.9976
X5.5406Y-2.1076
X5.5406Y-2.7376
X5.5415Y-2.2276
X5.6339Y-3.315
X5.6339Y-3.415
X5.6339Y-3.515
X5.6339Y-3.615
X5.6339Y-3.715
X5.6339Y-3.815
X5.6339Y-3.915
X5.6339Y-4.1181
X5.6339Y-4.2181
X5.6339Y-4.3181
X5.6339Y-4.4181
X5.6339Y-4.5181
X5.6339Y-4.6181
X5.6339Y-4.7181
X5.6457Y-1.6732
X5.6457Y-1.7732
X5.6457Y-1.8732
X5.6457Y-1.9732
X5.6457Y-2.0732
X5.6457Y-2.1732
X5.6457Y-2.2732
X5.6457Y-2.5024
X5.6457Y-2.6024
X5.6457Y-2.7024
X5.6457Y-2.8024
X5.6457Y-2.9024
X5.6457Y-3.0024
X5.6457Y-3.1024
X5.6657Y-5.2598
X5.7327Y-5.7402
X5.9339Y-3.315
X5.9339Y-3.415
X5.9339Y-3.515
X5.9339Y-3.615
X5.9339Y-3.715
X5.9339Y-3.815
X5.9339Y-3.915
X5.9339Y-4.1181
X5.9339Y-4.2181
X5.9339Y-4.3181
X5.9339Y-4.4181
X5.9339Y-4.5181
X5.9339Y-4.6181
X5.9339Y-4.7181
X5.9457Y-1.6732
X5.9457Y-1.7732
X5.9457Y-1.8732
X5.9457Y-1.9732
X5.9457Y-2.0732
X5.9457Y-2.1732
X5.9457Y-2.2732
X5.9457Y-2.5024
X5.9457Y-2.6024
X5.9457Y-2.7024
X5.9457Y-2.8024
X5.9457Y-2.9024
X5.9457Y-3.0024
X5.9457Y-3.1024
X6.0197Y-5.6496
X6.0512Y-2.9685
X6.0661Y-3.1102
X6.0705Y-3.2559
X6.078Y-2.122
X6.0783Y-1.626
X6.0787Y-1.7835
X6.0823Y-3.4016
X6.0862Y-2.2835
X6.0886Y-1.9724
X6.0906Y-4.0512
X6.1142Y-3.626
X6.1181Y-5.6496
X6.1417Y-4.2244
X6.1417Y-4.5244
X6.1496Y-4.6535
X6.1496Y-4.752
X6.1575Y-2.4134
X6.1575Y-2.7134
X6.187Y-1.9724
X6.189Y-4.0512
X6.2126Y-3.626
X6.3189Y-5.1492
X6.3189Y-5.4492
X6.3268Y-5.6122
X6.3268Y-5.7106
X6.3425Y-4.6882
X6.3425Y-4.9882
X6.3512Y-2.9685
X6.3661Y-3.1102
X6.3705Y-3.2559
X6.378Y-2.122
X6.3783Y-1.626
X6.3787Y-1.7835
X6.3823Y-3.4016
X6.3862Y-2.2835
T4
X4.2956Y-1.7999
X4.2956Y-2.9399
X4.3956Y-1.7999
X4.3956Y-2.9399
X4.4956Y-1.7999
X4.4956Y-2.9399
T5
X5.2315Y-4.9528
X5.2315Y-5.0528
X5.3315Y-4.9528
X5.3315Y-5.0528
X5.4315Y-4.9528
X5.4315Y-5.0528
X5.5315Y-4.9528
X5.5315Y-5.0528
X5.6315Y-4.9528
X5.6315Y-5.0528
X5.7315Y-4.9528
X5.7315Y-5.0528
X5.8315Y-4.9528
X5.8315Y-5.0528
X5.9315Y-4.9528
X5.9315Y-5.0528
T6
X3.1582Y-4.5402
X3.1582Y-4.6402
X3.1582Y-4.7402
X3.1582Y-4.8402
X3.1613Y-2.439
X3.1613Y-2.539
X3.1613Y-2.639
X3.1613Y-2.739
X3.1613Y-2.839
X3.1613Y-2.939
X3.1613Y-3.039
X3.1613Y-3.139
X3.1613Y-3.239
X3.1613Y-3.339
X4.5594Y-3.6012
X4.5594Y-3.7012
X4.5594Y-3.8012
X4.5594Y-3.9012
X4.5594Y-4.0012
X4.5594Y-4.1012
X4.5594Y-4.2012
X4.5594Y-4.3012
X4.5594Y-4.4012
X4.5594Y-4.5012
X4.5803Y-2.4383
X4.5803Y-2.5383
X4.5803Y-2.6383
X4.5803Y-2.7383
X4.5803Y-2.8383
X4.9445Y-4.5247
X4.9445Y-4.6247
X4.9445Y-4.7247
X4.9445Y-4.8247
X4.9488Y-2.4217
X4.9488Y-2.5217
X4.9488Y-2.6217
X4.9488Y-2.7217
X4.9488Y-2.8217
X4.9488Y-2.9217
X4.9488Y-3.0217
X4.9488Y-3.1217
X4.9488Y-3.2217
X4.9488Y-3.3217
X6.3457Y-3.5839
X6.3457Y-3.6839
X6.3457Y-3.7839
X6.3457Y-3.8839
X6.3457Y-3.9839
X6.3457Y-4.0839
X6.3457Y-4.1839
X6.3457Y-4.2839
X6.3457Y-4.3839
X6.3457Y-4.4839
X6.3665Y-2.4228
X6.3665Y-2.5228
X6.3665Y-2.6228
X6.3665Y-2.7228
X6.3665Y-2.8228
T7
X3.8785Y-1.753
X3.8785Y-2.103
X3.8785Y-2.478
X3.8785Y-2.8272
X3.8785Y-3.178
X3.8785Y-3.553
X3.8785Y-3.903
X3.8785Y-4.253
X3.8785Y-4.6061
X3.8785Y-4.973
X3.9785Y-1.753
X3.9785Y-2.103
X3.9785Y-2.478
X3.9785Y-2.8272
X3.9785Y-3.178
X3.9785Y-3.553
X3.9785Y-3.903
X3.9785Y-4.253
X3.9785Y-4.6061
X3.9785Y-4.973
T9
X3.4571Y-5.3802
X3.4571Y-5.707
X3.4571Y-5.829
X3.8567Y-5.3802
X3.8567Y-5.707
X3.8567Y-5.829
X4.2563Y-5.3802
X4.2563Y-5.707
X4.2563Y-5.829
T10
X4.2226Y-2.0759
X4.2226Y-3.2159
X4.5686Y-2.0759
X4.5686Y-3.2159
T8
G00X3.333Y-1.7787
M15
G01X3.333Y-1.7393
M16
G05
G00X3.333Y-2.138
M15
G01X3.333Y-2.0986
M16
G05
G00X3.333Y-2.4973
M15
G01X3.333Y-2.4579
M16
G05
G00X3.333Y-2.8566
M15
G01X3.333Y-2.8172
M16
G05
G00X3.333Y-3.2159
M15
G01X3.333Y-3.1765
M16
G05
G00X3.333Y-3.5656
M15
G01X3.333Y-3.5263
M16
G05
G00X3.333Y-3.9249
M15
G01X3.333Y-3.8856
M16
G05
G00X3.333Y-4.2842
M15
G01X3.333Y-4.2449
M16
G05
G00X3.333Y-4.6435
M15
G01X3.333Y-4.6042
M16
G05
G00X3.333Y-5.0028
M15
G01X3.333Y-4.9634
M16
G05
G00X3.5181Y-1.7787
M15
G01X3.5181Y-1.7393
M16
G05
G00X3.5181Y-2.138
M15
G01X3.5181Y-2.0986
M16
G05
G00X3.5181Y-2.4973
M15
G01X3.5181Y-2.4579
M16
G05
G00X3.5181Y-2.8566
M15
G01X3.5181Y-2.8172
M16
G05
G00X3.5181Y-3.2159
M15
G01X3.5181Y-3.1765
M16
G05
G00X3.5181Y-3.5656
M15
G01X3.5181Y-3.5263
M16
G05
G00X3.5181Y-3.9249
M15
G01X3.5181Y-3.8856
M16
G05
G00X3.5181Y-4.2842
M15
G01X3.5181Y-4.2449
M16
G05
G00X3.5181Y-4.6435
M15
G01X3.5181Y-4.6042
M16
G05
G00X3.5181Y-5.0028
M15
G01X3.5181Y-4.9634
M16
G05
G00X3.7031Y-1.7787
M15
G01X3.7031Y-1.7393
M16
G05
G00X3.7031Y-2.138
M15
G01X3.7031Y-2.0986
M16
G05
G00X3.7031Y-2.4973
M15
G01X3.7031Y-2.4579
M16
G05
G00X3.7031Y-2.8566
M15
G01X3.7031Y-2.8172
M16
G05
G00X3.7031Y-3.2159
M15
G01X3.7031Y-3.1765
M16
G05
G00X3.7031Y-3.5656
M15
G01X3.7031Y-3.5263
M16
G05
G00X3.7031Y-3.9249
M15
G01X3.7031Y-3.8856
M16
G05
G00X3.7031Y-4.2842
M15
G01X3.7031Y-4.2449
M16
G05
G00X3.7031Y-4.6435
M15
G01X3.7031Y-4.6042
M16
G05
G00X3.7031Y-5.0028
M15
G01X3.7031Y-4.9634
M16
G05
T0
M30
