M48
; DRILL file {KiCad 7.0.9-7.0.9~ubuntu22.04.1} date Sat 03 Feb 2024 08:02:15 PM
; FORMAT={-:-/ absolute / inch / decimal}
; #@! TF.CreationDate,2024-02-03T20:02:15-05:00
; #@! TF.GenerationSoftware,Kicad,Pcbnew,7.0.9-7.0.9~ubuntu22.04.1
; #@! TF.FileFunction,Plated,1,2,PTH
FMAT,2
INCH
; #@! TA.AperFunction,Plated,PTH,ViaDrill
T1C0.0157
; #@! TA.AperFunction,Plated,PTH,ComponentDrill
T2C0.0295
; #@! TA.AperFunction,Plated,PTH,ComponentDrill
T3C0.0315
; #@! TA.AperFunction,Plated,PTH,ComponentDrill
T4C0.0354
; #@! TA.AperFunction,Plated,PTH,ComponentDrill
T5C0.0394
%
G90
G05
T1
X6.0315Y-2.3252
X6.0866Y-3.1047
X6.0906Y-2.8016
X6.1043Y-2.9
X6.1102Y-3.1953
X6.1341Y-4.4979
X6.1516Y-3.3055
X6.2008Y-3.4
X6.2205Y-4.4748
X6.248Y-4.4
X6.4173Y-3.6024
X6.7992Y-2.8031
X6.7992Y-3.0732
X6.7992Y-2.8724
X6.8307Y-3.4291
X6.9409Y-3.3173
X7.0157Y-3.9669
X7.0197Y-4.0197
X7.0394Y-4.0575
X7.1654Y-4.022
X7.1693Y-3.9039
X7.1929Y-5.7795
X7.2598Y-4.3843
X7.2874Y-3.6244
T2
X6.4461Y-5.6189
X6.4961Y-5.6189
X6.5461Y-5.6189
X6.702Y-5.6228
X6.752Y-5.6228
X6.802Y-5.6228
T3
X5.9488Y-5.0413
X5.9488Y-5.3413
X5.9567Y-3.6299
X5.9567Y-3.7299
X5.9567Y-3.8299
X5.9567Y-3.9299
X5.9567Y-4.0299
X5.9567Y-4.1299
X5.9567Y-4.2299
X5.9567Y-4.3299
X6.0205Y-5.5121
X6.0205Y-5.6121
X6.0205Y-5.7121
X6.0205Y-5.8121
X6.0783Y-4.4866
X6.228Y-1.7504
X6.2295Y-2.6869
X6.2415Y-2.43
X6.2445Y-2.1769
X6.2454Y-2.2969
X6.2567Y-3.6299
X6.2567Y-3.7299
X6.2567Y-3.8299
X6.2567Y-3.9299
X6.2567Y-4.0299
X6.2567Y-4.1299
X6.2567Y-4.2299
X6.2567Y-4.3299
X6.2913Y-4.652
X6.3202Y-3.13
X6.3202Y-3.43
X6.3205Y-5.5121
X6.3205Y-5.6121
X6.3205Y-5.7121
X6.3205Y-5.8121
X6.3399Y-2.43
X6.3697Y-5.3291
X6.3783Y-4.4866
X6.3895Y-3.0069
X6.3898Y-4.652
X6.4246Y-2.5501
X6.4246Y-3.243
X6.4311Y-3.7819
X6.4344Y-1.8926
X6.4366Y-5.8094
X6.4879Y-3.0069
X6.4921Y-3.935
X6.4921Y-4.235
X6.4961Y-4.3327
X6.4961Y-4.6327
X6.523Y-2.5501
X6.523Y-3.243
X6.528Y-1.7504
X6.5295Y-2.6869
X6.5295Y-3.7819
X6.5328Y-1.8926
X6.5445Y-2.1769
X6.5454Y-2.2969
X6.6378Y-3.3843
X6.6378Y-3.4843
X6.6378Y-3.5843
X6.6378Y-3.6843
X6.6378Y-3.7843
X6.6378Y-3.8843
X6.6378Y-3.9843
X6.6378Y-4.1874
X6.6378Y-4.2874
X6.6378Y-4.3874
X6.6378Y-4.4874
X6.6378Y-4.5874
X6.6378Y-4.6874
X6.6378Y-4.7874
X6.6496Y-1.7425
X6.6496Y-1.8425
X6.6496Y-1.9425
X6.6496Y-2.0425
X6.6496Y-2.1425
X6.6496Y-2.2425
X6.6496Y-2.3425
X6.6496Y-2.5717
X6.6496Y-2.6717
X6.6496Y-2.7717
X6.6496Y-2.8717
X6.6496Y-2.9717
X6.6496Y-3.0717
X6.6496Y-3.1717
X6.6697Y-5.3291
X6.7366Y-5.8094
X6.9378Y-3.3843
X6.9378Y-3.4843
X6.9378Y-3.5843
X6.9378Y-3.6843
X6.9378Y-3.7843
X6.9378Y-3.8843
X6.9378Y-3.9843
X6.9378Y-4.1874
X6.9378Y-4.2874
X6.9378Y-4.3874
X6.9378Y-4.4874
X6.9378Y-4.5874
X6.9378Y-4.6874
X6.9378Y-4.7874
X6.9496Y-1.7425
X6.9496Y-1.8425
X6.9496Y-1.9425
X6.9496Y-2.0425
X6.9496Y-2.1425
X6.9496Y-2.2425
X6.9496Y-2.3425
X6.9496Y-2.5717
X6.9496Y-2.6717
X6.9496Y-2.7717
X6.9496Y-2.8717
X6.9496Y-2.9717
X6.9496Y-3.0717
X6.9496Y-3.1717
X7.0236Y-5.7189
X7.063Y-2.3543
X7.063Y-2.6543
X7.0701Y-3.1795
X7.0819Y-2.1913
X7.0827Y-1.8528
X7.0925Y-2.0417
X7.0945Y-4.1205
X7.1181Y-3.6953
X7.122Y-5.7189
X7.1457Y-4.2937
X7.1457Y-4.5937
X7.1535Y-4.7228
X7.1535Y-4.8213
X7.1909Y-2.0417
X7.1929Y-4.1205
X7.2165Y-3.6953
X7.3228Y-5.2185
X7.3228Y-5.5185
X7.3307Y-5.6815
X7.3307Y-5.7799
X7.3701Y-3.1795
X7.3819Y-2.1913
X7.3827Y-1.8528
T4
X6.2354Y-5.022
X6.2354Y-5.122
X6.3354Y-5.022
X6.3354Y-5.122
X6.4354Y-5.022
X6.4354Y-5.122
X6.5354Y-5.022
X6.5354Y-5.122
X6.6354Y-5.022
X6.6354Y-5.122
X6.7354Y-5.022
X6.7354Y-5.122
X6.8354Y-5.022
X6.8354Y-5.122
X6.9354Y-5.022
X6.9354Y-5.122
T5
X5.9484Y-4.594
X5.9484Y-4.694
X5.9484Y-4.794
X5.9484Y-4.894
X5.9515Y-2.4917
X5.9515Y-2.5917
X5.9515Y-2.6917
X5.9515Y-2.7917
X5.9515Y-2.8917
X5.9515Y-2.9917
X5.9515Y-3.0917
X5.9515Y-3.1917
X5.9515Y-3.2917
X5.9515Y-3.3917
X7.3496Y-3.6532
X7.3496Y-3.7532
X7.3496Y-3.8532
X7.3496Y-3.9532
X7.3496Y-4.0532
X7.3496Y-4.1532
X7.3496Y-4.2532
X7.3496Y-4.3532
X7.3496Y-4.4532
X7.3496Y-4.5532
X7.3705Y-2.4921
X7.3705Y-2.5921
X7.3705Y-2.6921
X7.3705Y-2.7921
X7.3705Y-2.8921
T0
M30
