M48
; DRILL file {KiCad 7.0.11-7.0.11~ubuntu22.04.1} date Mon 01 Apr 2024 05:30:57 PM
; FORMAT={-:-/ absolute / metric / decimal}
; #@! TF.CreationDate,2024-04-01T17:30:57-04:00
; #@! TF.GenerationSoftware,Kicad,Pcbnew,7.0.11-7.0.11~ubuntu22.04.1
; #@! TF.FileFunction,Plated,1,2,PTH
FMAT,2
METRIC
; #@! TA.AperFunction,Plated,PTH,ViaDrill
T1C0.400
; #@! TA.AperFunction,Plated,PTH,ComponentDrill
T2C0.750
; #@! TA.AperFunction,Plated,PTH,ComponentDrill
T3C0.800
; #@! TA.AperFunction,Plated,PTH,ComponentDrill
T4C0.889
; #@! TA.AperFunction,Plated,PTH,ComponentDrill
T5C0.900
; #@! TA.AperFunction,Plated,PTH,ComponentDrill
T6C1.000
; #@! TA.AperFunction,Plated,PTH,ComponentDrill
T7C1.001
; #@! TA.AperFunction,Plated,PTH,ComponentDrill
T8C1.200
; #@! TA.AperFunction,Plated,PTH,ComponentDrill
T9C1.600
; #@! TA.AperFunction,Plated,PTH,ComponentDrill
T10C2.057
%
G90
G05
T1
X100.651Y-71.237
X121.92Y-114.3
X153.2Y-59.06
X154.6Y-78.86
X154.7Y-71.16
X155.049Y-73.66
X155.2Y-81.16
X155.806Y-114.245
X156.249Y-83.96
X156.718Y-113.792
X156.718Y-116.586
X157.5Y-86.36
X158.0Y-113.66
X158.7Y-111.76
X163.0Y-91.5
X172.7Y-71.2
X172.7Y-78.06
X172.701Y-72.96
X172.974Y-82.042
X173.5Y-87.1
X178.2Y-100.76
X178.3Y-102.1
X178.8Y-103.06
X179.551Y-74.649
X179.578Y-88.646
X182.0Y-102.16
X182.1Y-99.16
X182.7Y-146.8
X184.4Y-111.36
X185.1Y-92.06
X185.16Y-77.724
T2
X163.73Y-142.72
X165.0Y-142.72
X166.27Y-142.72
X170.23Y-142.82
X171.5Y-142.82
X172.77Y-142.82
X181.102Y-73.66
X181.102Y-74.93
X181.102Y-76.2
T3
X111.4Y-40.645
X111.4Y-49.535
X111.4Y-58.928
X111.4Y-76.84
X111.4Y-94.62
X111.4Y-104.145
X111.4Y-113.035
X111.81Y-85.73
X112.035Y-67.95
X119.02Y-40.645
X119.02Y-49.535
X119.02Y-58.928
X119.02Y-76.84
X119.02Y-94.62
X119.02Y-104.145
X119.02Y-113.035
X119.43Y-85.73
X119.655Y-67.95
X120.0Y-116.29
X120.0Y-123.91
X120.142Y-61.976
X123.43Y-116.206
X123.43Y-123.826
X127.762Y-61.976
X151.1Y-128.05
X151.1Y-135.67
X151.3Y-92.2
X151.3Y-94.74
X151.3Y-97.28
X151.3Y-99.82
X151.3Y-102.36
X151.3Y-104.9
X151.3Y-107.44
X151.3Y-109.98
X152.92Y-140.008
X152.92Y-142.548
X152.92Y-145.088
X152.92Y-147.628
X154.39Y-113.96
X156.464Y-122.174
X158.19Y-44.46
X158.229Y-68.248
X158.534Y-61.722
X158.61Y-55.294
X158.634Y-58.342
X158.92Y-92.2
X158.92Y-94.74
X158.92Y-97.28
X158.92Y-99.82
X158.92Y-102.36
X158.92Y-104.9
X158.92Y-107.44
X158.92Y-109.98
X159.8Y-118.16
X160.534Y-79.502
X160.534Y-87.122
X160.54Y-140.008
X160.54Y-142.548
X160.54Y-145.088
X160.54Y-147.628
X161.034Y-61.722
X161.79Y-135.36
X162.01Y-113.96
X162.293Y-76.376
X162.3Y-118.16
X163.184Y-64.772
X163.184Y-82.372
X163.35Y-96.06
X163.434Y-48.072
X163.49Y-147.56
X164.084Y-122.174
X164.793Y-76.376
X164.9Y-99.95
X164.9Y-107.57
X165.0Y-110.05
X165.0Y-117.67
X165.684Y-64.772
X165.684Y-82.372
X165.81Y-44.46
X165.849Y-68.248
X165.85Y-96.06
X165.934Y-48.072
X166.23Y-55.294
X166.254Y-58.342
X168.6Y-85.96
X168.6Y-88.5
X168.6Y-91.04
X168.6Y-93.58
X168.6Y-96.12
X168.6Y-98.66
X168.6Y-101.2
X168.6Y-106.36
X168.6Y-108.9
X168.6Y-111.44
X168.6Y-113.98
X168.6Y-116.52
X168.6Y-119.06
X168.6Y-121.6
X168.9Y-44.26
X168.9Y-46.8
X168.9Y-49.34
X168.9Y-51.88
X168.9Y-54.42
X168.9Y-56.96
X168.9Y-59.5
X168.9Y-65.32
X168.9Y-67.86
X168.9Y-70.4
X168.9Y-72.94
X168.9Y-75.48
X168.9Y-78.02
X168.9Y-80.56
X169.41Y-135.36
X171.11Y-147.56
X176.22Y-85.96
X176.22Y-88.5
X176.22Y-91.04
X176.22Y-93.58
X176.22Y-96.12
X176.22Y-98.66
X176.22Y-101.2
X176.22Y-106.36
X176.22Y-108.9
X176.22Y-111.44
X176.22Y-113.98
X176.22Y-116.52
X176.22Y-119.06
X176.22Y-121.6
X176.52Y-44.26
X176.52Y-46.8
X176.52Y-49.34
X176.52Y-51.88
X176.52Y-54.42
X176.52Y-56.96
X176.52Y-59.5
X176.52Y-65.32
X176.52Y-67.86
X176.52Y-70.4
X176.52Y-72.94
X176.52Y-75.48
X176.52Y-78.02
X176.52Y-80.56
X178.4Y-145.26
X179.324Y-80.518
X179.578Y-84.582
X179.88Y-55.66
X180.086Y-44.704
X180.086Y-59.944
X180.086Y-67.564
X180.15Y-51.86
X180.2Y-104.66
X180.8Y-93.86
X180.9Y-145.26
X181.5Y-109.06
X181.5Y-116.68
X181.7Y-119.96
X181.7Y-122.46
X182.65Y-51.86
X182.7Y-104.66
X183.3Y-93.86
X183.642Y-58.42
X183.642Y-66.04
X186.0Y-132.55
X186.0Y-140.17
X186.2Y-144.31
X186.2Y-146.81
X186.944Y-80.518
X187.198Y-84.582
X187.5Y-55.66
X187.706Y-44.704
T4
X123.35Y-37.24
X123.35Y-66.196
X125.89Y-37.24
X125.89Y-66.196
X128.43Y-37.24
X128.43Y-66.196
T5
X158.38Y-127.56
X158.38Y-130.1
X160.92Y-127.56
X160.92Y-130.1
X163.46Y-127.56
X163.46Y-130.1
X166.0Y-127.56
X166.0Y-130.1
X168.54Y-127.56
X168.54Y-130.1
X171.08Y-127.56
X171.08Y-130.1
X173.62Y-127.56
X173.62Y-130.1
X176.16Y-127.56
X176.16Y-130.1
T6
X94.46Y-106.842
X94.46Y-109.382
X94.46Y-111.922
X94.46Y-114.462
X94.538Y-53.472
X94.538Y-56.012
X94.538Y-58.552
X94.538Y-61.092
X94.538Y-63.632
X94.538Y-66.172
X94.538Y-68.712
X94.538Y-71.252
X94.538Y-73.792
X94.538Y-76.332
X130.05Y-82.992
X130.05Y-85.532
X130.05Y-88.072
X130.05Y-90.612
X130.05Y-93.152
X130.05Y-95.692
X130.05Y-98.232
X130.05Y-100.772
X130.05Y-103.312
X130.05Y-105.852
X130.58Y-53.454
X130.58Y-55.994
X130.58Y-58.534
X130.58Y-61.074
X130.58Y-63.614
X151.09Y-116.688
X151.09Y-119.228
X151.09Y-121.768
X151.09Y-124.308
X151.168Y-63.289
X151.168Y-65.829
X151.168Y-68.369
X151.168Y-70.909
X151.168Y-73.449
X151.168Y-75.989
X151.168Y-78.529
X151.168Y-81.069
X151.168Y-83.609
X151.168Y-86.149
X186.68Y-92.792
X186.68Y-95.332
X186.68Y-97.872
X186.68Y-100.412
X186.68Y-102.952
X186.68Y-105.492
X186.68Y-108.032
X186.68Y-110.572
X186.68Y-113.112
X186.68Y-115.652
X187.21Y-63.3
X187.21Y-65.84
X187.21Y-68.38
X187.21Y-70.92
X187.21Y-73.46
T7
X112.756Y-36.048
X112.756Y-44.938
X112.756Y-54.463
X112.756Y-63.332
X112.756Y-72.243
X112.756Y-81.768
X112.756Y-90.658
X112.756Y-99.548
X112.756Y-108.516
X112.756Y-117.836
X115.296Y-36.048
X115.296Y-44.938
X115.296Y-54.463
X115.296Y-63.332
X115.296Y-72.243
X115.296Y-81.768
X115.296Y-90.658
X115.296Y-99.548
X115.296Y-108.516
X115.296Y-117.836
X124.206Y-55.372
X126.746Y-55.372
T9
X102.051Y-128.178
X102.051Y-136.478
X102.051Y-139.578
X112.201Y-128.178
X112.201Y-136.478
X112.201Y-139.578
X122.351Y-128.178
X122.351Y-136.478
X122.351Y-139.578
T10
X121.496Y-44.25
X121.496Y-73.206
X130.285Y-44.25
X130.285Y-73.206
T8
G00X98.9Y-36.7
M15
G01X98.9Y-35.7
M16
G05
G00X98.9Y-45.826
M15
G01X98.9Y-44.826
M16
G05
G00X98.9Y-54.952
M15
G01X98.9Y-53.952
M16
G05
G00X98.9Y-64.078
M15
G01X98.9Y-63.078
M16
G05
G00X98.9Y-73.204
M15
G01X98.9Y-72.204
M16
G05
G00X98.9Y-82.088
M15
G01X98.9Y-81.088
M16
G05
G00X98.9Y-91.215
M15
G01X98.9Y-90.215
M16
G05
G00X98.9Y-100.34
M15
G01X98.9Y-99.34
M16
G05
G00X98.9Y-109.466
M15
G01X98.9Y-108.466
M16
G05
G00X98.9Y-118.593
M15
G01X98.9Y-117.593
M16
G05
G00X103.6Y-36.7
M15
G01X103.6Y-35.7
M16
G05
G00X103.6Y-45.826
M15
G01X103.6Y-44.826
M16
G05
G00X103.6Y-54.952
M15
G01X103.6Y-53.952
M16
G05
G00X103.6Y-64.078
M15
G01X103.6Y-63.078
M16
G05
G00X103.6Y-73.204
M15
G01X103.6Y-72.204
M16
G05
G00X103.6Y-82.088
M15
G01X103.6Y-81.088
M16
G05
G00X103.6Y-91.215
M15
G01X103.6Y-90.215
M16
G05
G00X103.6Y-100.34
M15
G01X103.6Y-99.34
M16
G05
G00X103.6Y-109.466
M15
G01X103.6Y-108.466
M16
G05
G00X103.6Y-118.593
M15
G01X103.6Y-117.593
M16
G05
G00X108.3Y-36.7
M15
G01X108.3Y-35.7
M16
G05
G00X108.3Y-45.826
M15
G01X108.3Y-44.826
M16
G05
G00X108.3Y-54.952
M15
G01X108.3Y-53.952
M16
G05
G00X108.3Y-64.078
M15
G01X108.3Y-63.078
M16
G05
G00X108.3Y-73.204
M15
G01X108.3Y-72.204
M16
G05
G00X108.3Y-82.088
M15
G01X108.3Y-81.088
M16
G05
G00X108.3Y-91.215
M15
G01X108.3Y-90.215
M16
G05
G00X108.3Y-100.34
M15
G01X108.3Y-99.34
M16
G05
G00X108.3Y-109.466
M15
G01X108.3Y-108.466
M16
G05
G00X108.3Y-118.593
M15
G01X108.3Y-117.593
M16
G05
M30
