%TF.GenerationSoftware,KiCad,Pcbnew,7.0.9-7.0.9~ubuntu22.04.1*%
%TF.CreationDate,2024-01-18T19:04:47-05:00*%
%TF.ProjectId,deca-ring-counter,64656361-2d72-4696-9e67-2d636f756e74,rev?*%
%TF.SameCoordinates,Original*%
%TF.FileFunction,Soldermask,Top*%
%TF.FilePolarity,Negative*%
%FSLAX46Y46*%
G04 Gerber Fmt 4.6, Leading zero omitted, Abs format (unit mm)*
G04 Created by KiCad (PCBNEW 7.0.9-7.0.9~ubuntu22.04.1) date 2024-01-18 19:04:47*
%MOMM*%
%LPD*%
G01*
G04 APERTURE LIST*
%ADD10R,1.050000X1.500000*%
%ADD11O,1.050000X1.500000*%
%ADD12C,1.600000*%
%ADD13O,1.600000X1.600000*%
%ADD14C,2.000000*%
%ADD15R,2.000000X2.000000*%
%ADD16R,1.600000X1.600000*%
%ADD17C,1.800000*%
%ADD18C,3.100000*%
%ADD19R,1.700000X1.700000*%
%ADD20O,1.700000X1.700000*%
%ADD21R,2.400000X1.600000*%
%ADD22O,2.400000X1.600000*%
%ADD23C,2.667000*%
%ADD24C,1.803400*%
%ADD25C,1.651000*%
G04 APERTURE END LIST*
D10*
%TO.C,Q2*%
X144730000Y-141060000D03*
D11*
X146000000Y-141060000D03*
X147270000Y-141060000D03*
%TD*%
D12*
%TO.C,R8*%
X136290000Y-133600000D03*
D13*
X143910000Y-133600000D03*
%TD*%
D12*
%TO.C,R6*%
X162000000Y-53900000D03*
D13*
X154380000Y-53900000D03*
%TD*%
D12*
%TO.C,C8*%
X136793000Y-74616000D03*
X139293000Y-74616000D03*
%TD*%
D14*
%TO.C,D20*%
X101055000Y-116995000D03*
D15*
X98515000Y-116995000D03*
%TD*%
D16*
%TO.C,D5*%
X161810000Y-82700000D03*
D13*
X154190000Y-82700000D03*
%TD*%
D12*
%TO.C,R7*%
X140349000Y-66488000D03*
D13*
X132729000Y-66488000D03*
%TD*%
D16*
%TO.C,D22*%
X156400000Y-61300000D03*
D13*
X156400000Y-68920000D03*
%TD*%
D12*
%TO.C,C12*%
X140350000Y-94300000D03*
X137850000Y-94300000D03*
%TD*%
D13*
%TO.C,R22*%
X97158860Y-121514000D03*
D12*
X104778860Y-121514000D03*
%TD*%
D17*
%TO.C,J1*%
X87810000Y-136657000D03*
X87810000Y-144957000D03*
X87810000Y-148057000D03*
%TD*%
D16*
%TO.C,D11*%
X125600000Y-126290000D03*
D13*
X125600000Y-133910000D03*
%TD*%
D14*
%TO.C,D15*%
X101055000Y-71811252D03*
D15*
X98515000Y-71811252D03*
%TD*%
D13*
%TO.C,R19*%
X97569000Y-94209000D03*
D12*
X105189000Y-94209000D03*
%TD*%
D13*
%TO.C,R20*%
X97158860Y-103099000D03*
D12*
X104778860Y-103099000D03*
%TD*%
D16*
%TO.C,D7*%
X130090000Y-120700000D03*
D13*
X137710000Y-120700000D03*
%TD*%
D18*
%TO.C,SW4*%
X94058860Y-72057000D03*
X89358860Y-72057000D03*
X84658860Y-72057000D03*
%TD*%
%TO.C,SW1*%
X94058860Y-44679000D03*
X89358860Y-44679000D03*
X84658860Y-44679000D03*
%TD*%
D14*
%TO.C,D12*%
X101055000Y-44527000D03*
D15*
X98515000Y-44527000D03*
%TD*%
D16*
%TO.C,D10*%
X133110000Y-69536000D03*
D13*
X140730000Y-69536000D03*
%TD*%
D14*
%TO.C,D19*%
X101055000Y-108027000D03*
D15*
X98515000Y-108027000D03*
%TD*%
D17*
%TO.C,J2*%
X97960000Y-136657000D03*
X97960000Y-144957000D03*
X97960000Y-148057000D03*
%TD*%
D12*
%TO.C,R2*%
X140310000Y-42700000D03*
D13*
X132690000Y-42700000D03*
%TD*%
D19*
%TO.C,J5*%
X125590000Y-114927531D03*
D20*
X125590000Y-117467531D03*
X125590000Y-120007531D03*
X125590000Y-122547531D03*
%TD*%
D18*
%TO.C,SW8*%
X94058860Y-108319500D03*
X89358860Y-108319500D03*
X84658860Y-108319500D03*
%TD*%
D21*
%TO.C,U3*%
X143400000Y-63560000D03*
D22*
X143400000Y-66100000D03*
X143400000Y-68640000D03*
X143400000Y-71180000D03*
X143400000Y-73720000D03*
X143400000Y-76260000D03*
X143400000Y-78800000D03*
X151020000Y-78800000D03*
X151020000Y-76260000D03*
X151020000Y-73720000D03*
X151020000Y-71180000D03*
X151020000Y-68640000D03*
X151020000Y-66100000D03*
X151020000Y-63560000D03*
%TD*%
D19*
%TO.C,J10*%
X161180000Y-113891643D03*
D20*
X161180000Y-111351643D03*
X161180000Y-108811643D03*
X161180000Y-106271643D03*
X161180000Y-103731643D03*
X161180000Y-101191643D03*
X161180000Y-98651643D03*
X161180000Y-96111643D03*
X161180000Y-93571643D03*
X161180000Y-91031643D03*
%TD*%
D12*
%TO.C,C3*%
X156200000Y-120700000D03*
X156200000Y-118200000D03*
%TD*%
D14*
%TO.C,D18*%
X101055000Y-99137000D03*
D15*
X98515000Y-99137000D03*
%TD*%
D12*
%TO.C,C2*%
X140434000Y-46312000D03*
X137934000Y-46312000D03*
%TD*%
D13*
%TO.C,R23*%
X105758860Y-124769000D03*
D12*
X105758860Y-132389000D03*
%TD*%
D19*
%TO.C,J8*%
X125700000Y-84371643D03*
D20*
X125700000Y-81831643D03*
X125700000Y-79291643D03*
X125700000Y-76751643D03*
X125700000Y-74211643D03*
X125700000Y-71671643D03*
X125700000Y-69131643D03*
X125700000Y-66591643D03*
X125700000Y-64051643D03*
X125700000Y-61511643D03*
%TD*%
D16*
%TO.C,D2*%
X162210000Y-58000000D03*
D13*
X154590000Y-58000000D03*
%TD*%
D16*
%TO.C,D1*%
X133110000Y-50740000D03*
D13*
X140730000Y-50740000D03*
%TD*%
D18*
%TO.C,SW6*%
X94058860Y-90067500D03*
X89358860Y-90067500D03*
X84658860Y-90067500D03*
%TD*%
D12*
%TO.C,C4*%
X135534000Y-59962000D03*
X133034000Y-59962000D03*
%TD*%
D18*
%TO.C,SW3*%
X94058860Y-62931000D03*
X89358860Y-62931000D03*
X84658860Y-62931000D03*
%TD*%
D13*
%TO.C,R15*%
X97158860Y-58014000D03*
D12*
X104778860Y-58014000D03*
%TD*%
D13*
%TO.C,R16*%
X97158860Y-67539000D03*
D12*
X104778860Y-67539000D03*
%TD*%
D14*
%TO.C,D17*%
X101055000Y-90247000D03*
D15*
X98515000Y-90247000D03*
%TD*%
D18*
%TO.C,SW7*%
X94058860Y-99193500D03*
X89358860Y-99193500D03*
X84658860Y-99193500D03*
%TD*%
D16*
%TO.C,U4*%
X127420000Y-138247531D03*
D13*
X127420000Y-140787531D03*
X127420000Y-143327531D03*
X127420000Y-145867531D03*
X135040000Y-145867531D03*
X135040000Y-143327531D03*
X135040000Y-140787531D03*
X135040000Y-138247531D03*
%TD*%
D17*
%TO.C,J3*%
X108110000Y-136657000D03*
X108110000Y-144957000D03*
X108110000Y-148057000D03*
%TD*%
D18*
%TO.C,SW9*%
X94058860Y-117445500D03*
X89358860Y-117445500D03*
X84658860Y-117445500D03*
%TD*%
D23*
%TO.C,RV2*%
X107255000Y-52729000D03*
X116043400Y-52729000D03*
D24*
X109109200Y-45718600D03*
X111649200Y-45718600D03*
X114189200Y-45718600D03*
%TD*%
D12*
%TO.C,C10*%
X140184000Y-80612000D03*
X137684000Y-80612000D03*
%TD*%
D21*
%TO.C,U2*%
X125800000Y-90440000D03*
D22*
X125800000Y-92980000D03*
X125800000Y-95520000D03*
X125800000Y-98060000D03*
X125800000Y-100600000D03*
X125800000Y-103140000D03*
X125800000Y-105680000D03*
X125800000Y-108220000D03*
X133420000Y-108220000D03*
X133420000Y-105680000D03*
X133420000Y-103140000D03*
X133420000Y-100600000D03*
X133420000Y-98060000D03*
X133420000Y-95520000D03*
X133420000Y-92980000D03*
X133420000Y-90440000D03*
%TD*%
D10*
%TO.C,Q1*%
X138230000Y-140960000D03*
D11*
X139500000Y-140960000D03*
X140770000Y-140960000D03*
%TD*%
D12*
%TO.C,C6*%
X157150000Y-50100000D03*
X154650000Y-50100000D03*
%TD*%
%TO.C,R24*%
X137990000Y-145800000D03*
D13*
X145610000Y-145800000D03*
%TD*%
D12*
%TO.C,R3*%
X156000000Y-114920000D03*
D13*
X156000000Y-107300000D03*
%TD*%
D18*
%TO.C,SW2*%
X94058860Y-53805000D03*
X89358860Y-53805000D03*
X84658860Y-53805000D03*
%TD*%
D12*
%TO.C,R1*%
X139500000Y-108290000D03*
D13*
X139500000Y-115910000D03*
%TD*%
%TO.C,R14*%
X97158860Y-49124000D03*
D12*
X104778860Y-49124000D03*
%TD*%
%TO.C,R13*%
X133110000Y-53534000D03*
D13*
X140730000Y-53534000D03*
%TD*%
D16*
%TO.C,D6*%
X161320000Y-75400000D03*
D13*
X153700000Y-75400000D03*
%TD*%
%TO.C,R18*%
X97158860Y-85319000D03*
D12*
X104778860Y-85319000D03*
%TD*%
%TO.C,R10*%
X135034000Y-85362000D03*
D13*
X135034000Y-77742000D03*
%TD*%
D16*
%TO.C,D3*%
X162010000Y-41300000D03*
D13*
X154390000Y-41300000D03*
%TD*%
D12*
%TO.C,R5*%
X136510000Y-112200000D03*
D13*
X128890000Y-112200000D03*
%TD*%
D12*
%TO.C,R4*%
X140754000Y-56582000D03*
D13*
X133134000Y-56582000D03*
%TD*%
D14*
%TO.C,D13*%
X101055000Y-53417000D03*
D15*
X98515000Y-53417000D03*
%TD*%
D12*
%TO.C,C7*%
X140184000Y-63012000D03*
X137684000Y-63012000D03*
%TD*%
%TO.C,C13*%
X160700000Y-145050000D03*
X160700000Y-142550000D03*
%TD*%
%TO.C,R25*%
X161700000Y-79000000D03*
D13*
X154080000Y-79000000D03*
%TD*%
D14*
%TO.C,D14*%
X101055000Y-62942000D03*
D15*
X98515000Y-62942000D03*
%TD*%
D23*
%TO.C,RV1*%
X107255000Y-81685000D03*
X116043400Y-81685000D03*
D24*
X109109200Y-74674600D03*
X111649200Y-74674600D03*
X114189200Y-74674600D03*
%TD*%
D13*
%TO.C,R26*%
X109188860Y-124685112D03*
D12*
X109188860Y-132305112D03*
%TD*%
D13*
%TO.C,R17*%
X97793860Y-76429000D03*
D12*
X105413860Y-76429000D03*
%TD*%
D18*
%TO.C,SW5*%
X94058860Y-81183000D03*
X89358860Y-81183000D03*
X84658860Y-81183000D03*
%TD*%
%TO.C,SW10*%
X94058860Y-126571500D03*
X89358860Y-126571500D03*
X84658860Y-126571500D03*
%TD*%
D14*
%TO.C,D16*%
X101055000Y-80722000D03*
D15*
X98515000Y-80722000D03*
%TD*%
D19*
%TO.C,J9*%
X161710000Y-61539531D03*
D20*
X161710000Y-64079531D03*
X161710000Y-66619531D03*
X161710000Y-69159531D03*
X161710000Y-71699531D03*
%TD*%
D16*
%TO.C,D8*%
X161100000Y-126700000D03*
D13*
X161100000Y-119080000D03*
%TD*%
D12*
%TO.C,C5*%
X134300000Y-116400000D03*
X136800000Y-116400000D03*
%TD*%
%TO.C,R12*%
X139400000Y-98190000D03*
D13*
X139400000Y-105810000D03*
%TD*%
D12*
%TO.C,C11*%
X155300000Y-92100000D03*
X157800000Y-92100000D03*
%TD*%
%TO.C,R11*%
X160500000Y-130790000D03*
D13*
X160500000Y-138410000D03*
%TD*%
%TO.C,R21*%
X97158860Y-112624000D03*
D12*
X104778860Y-112624000D03*
%TD*%
D16*
%TO.C,D4*%
X139820000Y-83930000D03*
D13*
X139820000Y-91550000D03*
%TD*%
D21*
%TO.C,U1*%
X143100000Y-104600000D03*
D22*
X143100000Y-107140000D03*
X143100000Y-109680000D03*
X143100000Y-112220000D03*
X143100000Y-114760000D03*
X143100000Y-117300000D03*
X143100000Y-119840000D03*
X150720000Y-119840000D03*
X150720000Y-117300000D03*
X150720000Y-114760000D03*
X150720000Y-112220000D03*
X150720000Y-109680000D03*
X150720000Y-107140000D03*
X150720000Y-104600000D03*
%TD*%
D21*
%TO.C,U8*%
X143100000Y-84200000D03*
D22*
X143100000Y-86740000D03*
X143100000Y-89280000D03*
X143100000Y-91820000D03*
X143100000Y-94360000D03*
X143100000Y-96900000D03*
X143100000Y-99440000D03*
X150720000Y-99440000D03*
X150720000Y-96900000D03*
X150720000Y-94360000D03*
X150720000Y-91820000D03*
X150720000Y-89280000D03*
X150720000Y-86740000D03*
X150720000Y-84200000D03*
%TD*%
D12*
%TO.C,C1*%
X154700000Y-102900000D03*
X157200000Y-102900000D03*
%TD*%
%TO.C,R9*%
X154400000Y-45300000D03*
D13*
X162020000Y-45300000D03*
%TD*%
D14*
%TO.C,D21*%
X101055000Y-126315000D03*
D15*
X98515000Y-126315000D03*
%TD*%
D21*
%TO.C,U6*%
X143400000Y-42500000D03*
D22*
X143400000Y-45040000D03*
X143400000Y-47580000D03*
X143400000Y-50120000D03*
X143400000Y-52660000D03*
X143400000Y-55200000D03*
X143400000Y-57740000D03*
X151020000Y-57740000D03*
X151020000Y-55200000D03*
X151020000Y-52660000D03*
X151020000Y-50120000D03*
X151020000Y-47580000D03*
X151020000Y-45040000D03*
X151020000Y-42500000D03*
%TD*%
D16*
%TO.C,D9*%
X162110000Y-86400000D03*
D13*
X154490000Y-86400000D03*
%TD*%
D16*
%TO.C,C9*%
X152900000Y-143500000D03*
D12*
X155400000Y-143500000D03*
%TD*%
D20*
%TO.C,J7*%
X80218860Y-122941000D03*
X80218860Y-120401000D03*
X80218860Y-117861000D03*
D19*
X80218860Y-115321000D03*
%TD*%
D20*
%TO.C,J4*%
X80297000Y-61951000D03*
X80297000Y-64491000D03*
X80297000Y-67031000D03*
X80297000Y-69571000D03*
X80297000Y-72111000D03*
X80297000Y-74651000D03*
X80297000Y-77191000D03*
X80297000Y-79731000D03*
X80297000Y-82271000D03*
D19*
X80297000Y-84811000D03*
%TD*%
D20*
%TO.C,J11*%
X115808860Y-91471000D03*
X115808860Y-94011000D03*
X115808860Y-96551000D03*
X115808860Y-99091000D03*
X115808860Y-101631000D03*
X115808860Y-104171000D03*
X115808860Y-106711000D03*
X115808860Y-109251000D03*
X115808860Y-111791000D03*
D19*
X115808860Y-114331000D03*
%TD*%
D20*
%TO.C,J6*%
X116338860Y-72093000D03*
X116338860Y-69553000D03*
X116338860Y-67013000D03*
X116338860Y-64473000D03*
D19*
X116338860Y-61933000D03*
%TD*%
D25*
%TO.C,H2*%
X150660000Y-128340000D03*
X150660000Y-125800000D03*
X148120000Y-128340000D03*
X148120000Y-125800000D03*
X145580000Y-128340000D03*
X145580000Y-125800000D03*
X143040000Y-128340000D03*
X143040000Y-125800000D03*
X140500000Y-128340000D03*
X140500000Y-125800000D03*
X137960000Y-128340000D03*
X137960000Y-125800000D03*
X135420000Y-128340000D03*
X135420000Y-125800000D03*
X132880000Y-128340000D03*
X132880000Y-125800000D03*
%TD*%
M02*
