<?xml version="1.0" encoding="UTF-8" standalone="no"?>
<!-- Created with Inkscape (http://www.inkscape.org/) -->

<svg
   width="70.973122mm"
   height="74.602829mm"
   viewBox="0 0 70.973122 74.602829"
   version="1.1"
   id="svg5"
   inkscape:version="1.1.2 (0a00cf5339, 2022-02-04)"
   sodipodi:docname="drawing.svg"
   xmlns:inkscape="http://www.inkscape.org/namespaces/inkscape"
   xmlns:sodipodi="http://sodipodi.sourceforge.net/DTD/sodipodi-0.dtd"
   xmlns="http://www.w3.org/2000/svg"
   xmlns:svg="http://www.w3.org/2000/svg">
  <sodipodi:namedview
     id="namedview7"
     pagecolor="#ffffff"
     bordercolor="#666666"
     borderopacity="1.0"
     inkscape:pageshadow="2"
     inkscape:pageopacity="0.0"
     inkscape:pagecheckerboard="0"
     inkscape:document-units="mm"
     showgrid="false"
     fit-margin-top="0"
     fit-margin-left="0"
     fit-margin-right="0"
     fit-margin-bottom="0"
     inkscape:zoom="1.4948513"
     inkscape:cx="95.661688"
     inkscape:cy="92.985837"
     inkscape:window-width="1848"
     inkscape:window-height="1011"
     inkscape:window-x="72"
     inkscape:window-y="32"
     inkscape:window-maximized="1"
     inkscape:current-layer="layer1" />
  <defs
     id="defs2" />
  <g
     inkscape:label="Layer 1"
     inkscape:groupmode="layer"
     id="layer1"
     transform="translate(-49.925344,-58.09765)">
    <g
       id="g1180"
       transform="rotate(-10.834802,85.149994,95.25883)"
       style="stroke-width:1.8;stroke-linejoin:round;stroke-miterlimit:4;stroke-dasharray:none">
      <path
         style="fill:none;stroke:#000000;stroke-width:1.8;stroke-linecap:butt;stroke-linejoin:round;stroke-miterlimit:4;stroke-dasharray:none;stroke-opacity:1"
         d="m 90.915261,63.773793 17.417809,9.405889 8.56267,17.847458 -3.56314,19.4719 -14.327926,13.65875 -19.619949,2.6284 -17.417812,-9.40588 -8.562665,-17.847459 3.563133,-19.471904 z"
         id="path190" />
      <path
         style="fill:none;stroke:#000000;stroke-width:1.8;stroke-linecap:butt;stroke-linejoin:round;stroke-miterlimit:4;stroke-dasharray:none;stroke-opacity:1"
         d="M 53.404248,99.532849 90.915259,63.773793 61.966913,117.38031 v 0"
         id="path192" />
      <path
         style="fill:none;stroke:#000000;stroke-width:1.8;stroke-linecap:butt;stroke-linejoin:round;stroke-miterlimit:4;stroke-dasharray:none;stroke-opacity:1"
         d="M 79.384725,126.78619 90.915259,63.773793 99.004674,124.15779"
         id="path194" />
      <path
         style="fill:none;stroke:#000000;stroke-width:1.8;stroke-linecap:butt;stroke-linejoin:round;stroke-miterlimit:4;stroke-dasharray:none;stroke-opacity:1"
         d="M 113.3326,110.49904 90.915259,63.773793 116.89574,91.02714"
         id="path196" />
      <path
         style="fill:none;stroke:#000000;stroke-width:1.8;stroke-linecap:butt;stroke-linejoin:round;stroke-miterlimit:4;stroke-dasharray:none;stroke-opacity:1"
         d="M 90.915259,63.773793 71.295312,66.402203 56.967381,80.060947"
         id="path198" />
    </g>
    <path
       style="fill:none;stroke:#000000;stroke-width:1.8;stroke-linecap:butt;stroke-linejoin:round;stroke-miterlimit:4;stroke-dasharray:none;stroke-opacity:1"
       d="m 107.25207,69.513797 0.92993,-0.84073 c 0,0 0.6278,0.74066 1.62489,0.69632"
       id="path1273" />
    <path
       style="fill:none;stroke:#000000;stroke-width:1.8;stroke-linecap:butt;stroke-linejoin:round;stroke-miterlimit:4;stroke-dasharray:none;stroke-opacity:1"
       d="m 117.95575,85.474225 c 0,0 -0.49634,-1.23793 0.32548,-1.54259 0.82181,-0.30465 0.66002,0.79128 0.66002,0.79128 l -0.12965,0.76174 v 0"
       id="path1275" />
    <path
       style="fill:none;stroke:#000000;stroke-width:1.8;stroke-linecap:butt;stroke-linejoin:round;stroke-miterlimit:4;stroke-dasharray:none;stroke-opacity:1"
       d="m 118.41298,105.48945 c 0,0 0.19763,-0.78182 0.64137,-0.84188 0.44373,-0.0601 0.94415,0.59758 0.94415,0.59758 l -0.67451,0.55462 c 0,0 0.57834,0.4004 0.456,0.88173 -0.12234,0.48132 -1.43278,-0.37458 -1.43278,-0.37458"
       id="path1277" />
    <path
       style="fill:none;stroke:#000000;stroke-width:1.8;stroke-linecap:butt;stroke-linejoin:round;stroke-miterlimit:4;stroke-dasharray:none;stroke-opacity:1"
       d="m 105.91796,121.37903 c 0,0 -0.0493,1.36051 0.88842,1.18674 0.93771,-0.17376 0.75613,1.2106 0.75613,1.2106"
       id="path1279" />
    <path
       style="fill:none;stroke:#000000;stroke-width:1.8;stroke-linecap:butt;stroke-linejoin:round;stroke-miterlimit:4;stroke-dasharray:none;stroke-opacity:1"
       d="m 107.16583,121.34394 -0.64189,3.11042 -0.91682,-1.16549 1.47378,-0.63347"
       id="path1283" />
    <path
       style="fill:none;stroke:#000000;stroke-width:1.8;stroke-linecap:butt;stroke-linejoin:round;stroke-miterlimit:4;stroke-dasharray:none;stroke-opacity:1"
       d="m 84.531155,130.47925 c 0,0 -0.686348,-0.76607 0.438679,-0.97715 1.125029,-0.21109 0.315777,1.06888 0.315777,1.06888 l -1.016468,0.35841 1.284833,0.79426 0.660863,-0.33865"
       id="path1285" />
    <path
       style="fill:none;stroke:#000000;stroke-width:1.8;stroke-linecap:butt;stroke-linejoin:round;stroke-miterlimit:4;stroke-dasharray:none;stroke-opacity:1"
       d="m 86.154085,129.86336 0.06075,1.52164 0.574336,0.78331"
       id="path1287" />
    <path
       style="fill:none;stroke:#000000;stroke-width:1.8;stroke-linecap:butt;stroke-linejoin:round;stroke-miterlimit:4;stroke-dasharray:none;stroke-opacity:1"
       d="m 64.462105,121.65859 1.03674,1.88845 -0.4611,0.77975 -0.7434,-0.0545 0.25054,-0.59805 1.23374,-0.12307 1.7993,1.73854"
       id="path1289" />
    <path
       style="fill:none;stroke:#000000;stroke-width:1.8;stroke-linecap:butt;stroke-linejoin:round;stroke-miterlimit:4;stroke-dasharray:none;stroke-opacity:1"
       d="m 50.783459,107.92952 0.824857,-2.60838 c 0,0 1.45935,-0.98212 1.09051,0.18886 -0.45571,1.44675 -0.89075,1.97072 -0.89075,1.97072 l 1.20644,1.99301"
       id="path1291"
       sodipodi:nodetypes="ccscc" />
    <path
       style="fill:none;stroke:#000000;stroke-width:1.8;stroke-linecap:butt;stroke-linejoin:round;stroke-miterlimit:4;stroke-dasharray:none;stroke-opacity:1"
       d="m 50.88671,84.634189 2.141077,0.007"
       id="path1535" />
    <path
       style="fill:none;stroke:#000000;stroke-width:1.8;stroke-linecap:butt;stroke-linejoin:round;stroke-miterlimit:4;stroke-dasharray:none;stroke-opacity:1"
       d="m 51.54201,84.580239 -0.36826,1.94704 c 0,0 -0.23786,-0.52825 0.22259,-0.68867 0.46045,-0.16041 0.87238,0.0791 0.87238,0.0791 0,0 0.399477,0.16676 0.0436,0.69127 -0.35583,0.5245 -0.35583,0.53603 -0.35583,0.53603"
       id="path1537" />
    <path
       style="fill:none;stroke:#000000;stroke-width:1.8;stroke-linecap:butt;stroke-linejoin:round;stroke-miterlimit:4;stroke-dasharray:none;stroke-opacity:1"
       d="m 60.858763,65.374897 0.38642,0.78176 -0.38487,0.3142 c 0,0 -0.54942,0.0353 -0.76073,-0.31922 -0.21131,-0.35448 -0.67355,-1.4925 0.82845,-1.70514 1.50201,-0.212627 1.67964,1.0192 1.67964,1.0192 l -0.13228,0.39208 -0.63256,0.61097 1.247247,0.62861 c 0,0 1.00626,0.1613 1.56641,1.03614"
       id="path1539" />
    <path
       style="fill:none;stroke:#000000;stroke-width:1.8;stroke-linecap:butt;stroke-linejoin:round;stroke-miterlimit:4;stroke-dasharray:none;stroke-opacity:1"
       d="m 84.403197,59.329081 0.38954,-0.24095 -0.51922,-0.0905 0.0463,0.57646"
       id="path1541" />
  </g>
</svg>
