<?xml version="1.0" encoding="UTF-8" standalone="no"?>
<!-- Created with Inkscape (http://www.inkscape.org/) -->

<svg
   width="27.605135mm"
   height="19.482548mm"
   viewBox="0 0 27.605135 19.482548"
   version="1.1"
   id="svg1817"
   inkscape:version="1.1.2 (0a00cf5339, 2022-02-04)"
   sodipodi:docname="drawing-2.svg"
   xmlns:inkscape="http://www.inkscape.org/namespaces/inkscape"
   xmlns:sodipodi="http://sodipodi.sourceforge.net/DTD/sodipodi-0.dtd"
   xmlns="http://www.w3.org/2000/svg"
   xmlns:svg="http://www.w3.org/2000/svg">
  <sodipodi:namedview
     id="namedview1819"
     pagecolor="#ffffff"
     bordercolor="#666666"
     borderopacity="1.0"
     inkscape:pageshadow="2"
     inkscape:pageopacity="0.0"
     inkscape:pagecheckerboard="0"
     inkscape:document-units="mm"
     showgrid="false"
     fit-margin-top="0"
     fit-margin-left="0"
     fit-margin-right="0"
     fit-margin-bottom="0"
     inkscape:zoom="4.2280779"
     inkscape:cx="28.381691"
     inkscape:cy="21.522782"
     inkscape:window-width="1848"
     inkscape:window-height="1011"
     inkscape:window-x="72"
     inkscape:window-y="32"
     inkscape:window-maximized="1"
     inkscape:current-layer="layer1" />
  <defs
     id="defs1814" />
  <g
     inkscape:label="Layer 1"
     inkscape:groupmode="layer"
     id="layer1"
     transform="translate(-89.619405,-139.23984)">
    <path
       style="fill:none;stroke:#000000;stroke-width:0.9;stroke-linecap:round;stroke-linejoin:round;stroke-miterlimit:4;stroke-dasharray:none;stroke-opacity:1"
       d="m 90.362073,157.85598 1.120521,-2.34149 -0.396981,-6.1541 -0.459983,-2.22258 -0.232876,-1.44613 -0.270579,-1.01869 c 0,0 -0.04663,-0.85549 0.253773,-1.01191 h 0.484915 c 0.219645,0.54338 0.367391,1.1901 0.367391,1.1901 l 0.25052,0.9758 0.914725,2.6203 0.56506,-0.008 -2.65e-4,-2.99929 0.374219,-2.91975 c 0,0 0.215657,-0.90052 0.745996,-0.99001 0.439529,-0.0445 0.520181,0.55806 0.520181,0.55806 l -0.102936,1.72215 0.134715,3.46515 0.300665,-2.79104 0.338923,-2.09973 0.128934,-1.27161 c 0,0 0.167564,-0.59722 0.517959,-0.55939 0.33457,-2.2e-4 0.448297,0.39327 0.448297,0.39327 l 0.08209,1.85883 -5.29e-4,2.89454 -0.111146,1.7797 0.325461,0.0851 0.514543,-2.32258 0.590434,-1.94799 c 0,0 0.295362,-1.17983 0.361217,-1.27989 0,0 0.333267,-0.3982 0.618958,-0.30977 0.408545,0.064 0.390861,0.603 0.390861,0.603 l -0.333446,1.74704 -0.268393,2.10474 -0.362974,2.15784 0.01244,1.36413 0.455758,1.58152 0.548209,0.39331 0.520817,-0.5458 0.454213,-0.6306 0.80941,-1.11655 c 0.77275,-0.65592 1.16822,-0.66786 1.16822,-0.66786 0,0 0.52476,-0.2113 0.68791,0.29174 -0.23115,0.53967 -0.73551,1.04728 -0.73551,1.04728 l -0.19307,1.05294 -1.37935,2.02705 -2.489081,3.43948 -0.976283,0.63247 -0.564658,1.03563"
       id="path1912"
       sodipodi:nodetypes="ccccccccccccccccccccccccccccccccccccccccccccccccc" />
    <path
       style="fill:none;stroke:#000000;stroke-width:0.9;stroke-linecap:round;stroke-linejoin:round;stroke-miterlimit:4;stroke-dasharray:none;stroke-opacity:1"
       d="m 109.75541,157.9237 -0.85167,-1.59079 -1.18569,-0.99089 -1.72673,-2.09139 -1.35381,-1.97161 -0.70317,-1.50191 c 0,0 -0.9826,-1.33096 -0.90969,-1.67808 l 0.27125,-0.2818 c 0.43164,-0.30999 0.82472,0.17891 0.82472,0.17891 l 1.09821,1.19626 0.99355,0.98591 0.81188,0.3784 0.68321,-1.76315 -0.008,-1.48615 -0.47097,-1.94876 -0.21836,-1.77241 -0.25863,-1.65503 c 0,0 0.15588,-0.68554 0.49155,-0.68082 0.30585,-0.11163 0.57894,0.3061 0.57894,0.3061 l 0.5731,1.73895 0.45985,1.54698 0.51519,1.64885 0.23643,0.22077 0.0377,-0.44621 -0.24241,-2.47752 0.0793,-3.44625 c 0,0 0.17617,-0.66728 0.52839,-0.59901 0.38834,-0.0372 0.62836,0.35066 0.62836,0.35066 l 0.0981,2.04802 0.22402,1.61883 0.36652,2.723 0.24144,0.0833 0.44325,-2.10856 0.33515,-1.78755 c 0,0 0.1506,-1.25706 0.34444,-1.6153 0.24267,-0.331 0.52208,-0.34587 0.52208,-0.34587 0,0 0.30761,-0.008 0.51343,0.45174 l -0.14423,1.99888 -0.2994,3.93858 0.12065,0.52208 0.39679,-0.0268 0.44685,-0.98233 0.53903,-0.86053 0.68127,-1.77849 c 0,0 0.25483,-0.41943 0.58428,-0.33045 0.31164,0.0254 0.39097,0.39977 0.39097,0.39977 l -0.0937,1.249 -0.45066,1.4389 -0.60843,1.80374 -0.39927,3.07832 -0.0812,2.40234 1.07049,2.32992 0.84476,1.06724"
       id="path1914"
       sodipodi:nodetypes="ccccccccccccccccccccccccccccccccccccccccccccccccccccc" />
  </g>
</svg>
